<?xml version="1.0" encoding="UTF-8"?>
<svg width="16px" height="16px" version="1.1" viewBox="0 0 16 16" xmlns="http://www.w3.org/2000/svg">
 <linearGradient id="a" x1="64" x2="64" y1="262" y2="232" gradientUnits="userSpaceOnUse">
  <stop stop-color="#9a9996" offset="0"/>
  <stop stop-color="#77767b" offset="1"/>
 </linearGradient>
 <path d="m7.48 0.0156h1.07c0.59 0 1.07 0.477 1.07 1.07v1.07c0 0.59-0.477 1.07-1.07 1.07h-1.07c-0.59 0-1.07-0.477-1.07-1.07v-1.07c0-0.59 0.477-1.07 1.07-1.07zm0 12.8h1.07c0.59 0 1.07 0.477 1.07 1.07v1.06c0 0.594-0.477 1.07-1.07 1.07h-1.07c-0.59 0-1.07-0.477-1.07-1.07v-1.06c0-0.594 0.477-1.07 1.07-1.07zm-5.5-10.1 0.754-0.754c0.199-0.199 0.469-0.312 0.754-0.312 0.281 0 0.555 0.113 0.754 0.312l0.754 0.754c0.418 0.418 0.418 1.09 0 1.51l-0.754 0.754c-0.199 0.203-0.473 0.316-0.754 0.316-0.285 0-0.555-0.113-0.754-0.316l-0.754-0.754c-0.203-0.199-0.316-0.469-0.316-0.754 0-0.281 0.113-0.555 0.316-0.754zm9.05 9.05 0.754-0.754c0.199-0.199 0.473-0.312 0.754-0.312 0.285 0 0.555 0.113 0.754 0.312l0.754 0.754c0.418 0.418 0.418 1.09 0 1.51l-0.754 0.754c-0.199 0.203-0.469 0.316-0.754 0.316-0.281 0-0.555-0.113-0.754-0.316l-0.754-0.754c-0.203-0.199-0.312-0.469-0.312-0.754 0-0.281 0.109-0.555 0.312-0.754zm-11-3.24v-1.07c0-0.59 0.473-1.07 1.07-1.07h1.07c0.59 0 1.07 0.477 1.07 1.07v1.07c0 0.59-0.477 1.07-1.07 1.07h-1.07c-0.594 0-1.07-0.477-1.07-1.07zm12.8 0v-1.07c0-0.59 0.477-1.07 1.07-1.07h1.07c0.594 0 1.07 0.477 1.07 1.07v1.07c0 0.59-0.477 1.07-1.07 1.07h-1.07c-0.59 0-1.07-0.477-1.07-1.07zm-10.1 5.5-0.754-0.754c-0.203-0.199-0.316-0.469-0.316-0.754 0-0.281 0.113-0.555 0.316-0.754l0.754-0.754c0.199-0.199 0.469-0.312 0.754-0.312 0.281 0 0.555 0.113 0.754 0.312l0.754 0.754c0.418 0.418 0.418 1.09 0 1.51l-0.754 0.754c-0.199 0.203-0.473 0.316-0.754 0.316-0.285 0-0.555-0.113-0.754-0.316zm9.05-9.05-0.754-0.754c-0.203-0.199-0.312-0.469-0.312-0.754 0-0.281 0.109-0.555 0.312-0.754l0.754-0.754c0.199-0.199 0.473-0.312 0.754-0.312 0.285 0 0.555 0.113 0.754 0.312l0.754 0.754c0.418 0.418 0.418 1.09 0 1.51l-0.754 0.754c-0.199 0.203-0.469 0.316-0.754 0.316-0.281 0-0.555-0.113-0.754-0.316z" fill="#241f31"/>
 <path d="m8.02 1.52c-3.57 0-6.5 2.93-6.5 6.5 0 3.57 2.93 6.5 6.5 6.5 3.57 0 6.5-2.93 6.5-6.5 0-3.57-2.93-6.5-6.5-6.5zm0 3c1.95 0 3.5 1.55 3.5 3.5 0 1.95-1.55 3.5-3.5 3.5-1.95 0-3.5-1.55-3.5-3.5 0-1.95 1.55-3.5 3.5-3.5z" fill="#241f31"/>
 <g fill="none">
  <path transform="translate(-160 -172)" d="m100 238c0 19.9-16.1 36-36 36s-36-16.1-36-36 16.1-36 36-36 36 16.1 36 36z" stroke="url(#a)" stroke-width="24"/>
  <path d="m-58 64c0 21-17 38-38 38s-38-17-38-38 17-38 38-38 38 17 38 38z" stroke="#f6f5f4" stroke-width="20"/>
 </g>
</svg>
