<?xml version="1.0" encoding="UTF-8" standalone="no"?>
<svg
   height="16px"
   viewBox="0 0 16 16"
   width="16px"
   version="1.1"
   id="svg73"
   sodipodi:docname="panel-top-symbolic.svg"
   inkscape:version="1.1.1 (3bf5ae0d25, 2021-09-20)"
   xmlns:inkscape="http://www.inkscape.org/namespaces/inkscape"
   xmlns:sodipodi="http://sodipodi.sourceforge.net/DTD/sodipodi-0.dtd"
   xmlns="http://www.w3.org/2000/svg"
   xmlns:svg="http://www.w3.org/2000/svg">
  <defs
     id="defs77" />
  <sodipodi:namedview
     id="namedview75"
     pagecolor="#ffffff"
     bordercolor="#666666"
     borderopacity="1.0"
     inkscape:pageshadow="2"
     inkscape:pageopacity="0.0"
     inkscape:pagecheckerboard="0"
     showgrid="false"
     inkscape:zoom="54.5625"
     inkscape:cx="7.9908362"
     inkscape:cy="7.9908362"
     inkscape:window-width="1635"
     inkscape:window-height="1267"
     inkscape:window-x="3657"
     inkscape:window-y="417"
     inkscape:window-maximized="0"
     inkscape:current-layer="svg73" />
  <filter
     id="a"
     height="1"
     width="1"
     x="0"
     y="0">
    <feColorMatrix
       in="SourceGraphic"
       type="matrix"
       values="0 0 0 0 1 0 0 0 0 1 0 0 0 0 1 0 0 0 1 0"
       id="feColorMatrix2" />
  </filter>
  <mask
     id="b">
    <g
       filter="url(#a)"
       id="g7">
      <path
         d="m 0 0 h 16 v 16 h -16 z"
         fill-opacity="0.3"
         id="path5" />
    </g>
  </mask>
  <clipPath
     id="c">
    <path
       d="m 0 0 h 800 v 800 h -800 z"
       id="path10" />
  </clipPath>
  <mask
     id="d">
    <g
       filter="url(#a)"
       id="g15">
      <path
         d="m 0 0 h 16 v 16 h -16 z"
         fill-opacity="0.35"
         id="path13" />
    </g>
  </mask>
  <clipPath
     id="e">
    <path
       d="m 0 0 h 800 v 800 h -800 z"
       id="path18" />
  </clipPath>
  <mask
     id="f">
    <g
       filter="url(#a)"
       id="g23">
      <path
         d="m 0 0 h 16 v 16 h -16 z"
         fill-opacity="0.35"
         id="path21" />
    </g>
  </mask>
  <clipPath
     id="g">
    <path
       d="m 0 0 h 800 v 800 h -800 z"
       id="path26" />
  </clipPath>
  <mask
     id="h">
    <g
       filter="url(#a)"
       id="g31">
      <path
         d="m 0 0 h 16 v 16 h -16 z"
         fill-opacity="0.35"
         id="path29" />
    </g>
  </mask>
  <clipPath
     id="i">
    <path
       d="m 0 0 h 800 v 800 h -800 z"
       id="path34" />
  </clipPath>
  <mask
     id="j">
    <g
       filter="url(#a)"
       id="g39">
      <path
         d="m 0 0 h 16 v 16 h -16 z"
         fill-opacity="0.35"
         id="path37" />
    </g>
  </mask>
  <clipPath
     id="k">
    <path
       d="m 0 0 h 800 v 800 h -800 z"
       id="path42" />
  </clipPath>
  <g
     fill="#2e3436"
     id="g51"
     transform="matrix(1,0,0,-1,0,15.976562)">
    <path
       d="m 3,0.988281 c -1.644531,0 -3,1.355469 -3,3 v 8 c 0,1.644531 1.355469,3 3,3 h 10 c 1.644531,0 3,-1.355469 3,-3 v -8 c 0,-1.644531 -1.355469,-3 -3,-3 z m 0,2 h 10 c 0.570312,0 1,0.429688 1,1 v 8 c 0,0.570313 -0.429688,1 -1,1 H 3 c -0.570312,0 -1,-0.429687 -1,-1 v -8 c 0,-0.570312 0.429688,-1 1,-1 z m 0,0"
       id="path45" />
    <path
       d="M 15,9.488281 H 1 v 4.5 h 14 z m 0,0"
       fill-opacity="0.35"
       id="path47" />
    <path
       d="m 1,9.988281 v -1 h 14 v 1 z m 0,0"
       id="path49" />
  </g>
  <g
     clip-path="url(#c)"
     mask="url(#b)"
     transform="matrix(1,0,0,-1,-380,355.98828)"
     id="g55">
    <path
       d="m 142.5,351 h 10.44922 c -1.1836,0.49219 -1.29688,2.45703 0,3 H 142.5 Z m 0,0"
       fill="#2e3436"
       id="path53" />
  </g>
  <g
     clip-path="url(#e)"
     mask="url(#d)"
     transform="matrix(1,0,0,-1,-380,355.98828)"
     id="g59">
    <path
       d="m 104,502 c 0,0.55078 -0.44922,1 -1,1 -0.55078,0 -1,-0.44922 -1,-1 0,-0.55078 0.44922,-1 1,-1 0.55078,0 1,0.44922 1,1 z m 0,0"
       fill="#2e3436"
       id="path57" />
  </g>
  <g
     clip-path="url(#g)"
     mask="url(#f)"
     transform="matrix(1,0,0,-1,-380,355.98828)"
     id="g63">
    <path
       d="m 106,501 v 2 h 8 v -2 z m 0,0"
       fill="#2e3436"
       fill-rule="evenodd"
       id="path61" />
  </g>
  <g
     clip-path="url(#i)"
     mask="url(#h)"
     transform="matrix(1,0,0,-1,-380,355.98828)"
     id="g67">
    <path
       d="m 104,514 c 0,0.55078 -0.44922,1 -1,1 -0.55078,0 -1,-0.44922 -1,-1 0,-0.55078 0.44922,-1 1,-1 0.55078,0 1,0.44922 1,1 z m 0,0"
       fill="#2e3436"
       id="path65" />
  </g>
  <g
     clip-path="url(#k)"
     mask="url(#j)"
     transform="matrix(1,0,0,-1,-380,355.98828)"
     id="g71">
    <path
       d="m 106,513 v 2 h 8 v -2 z m 0,0"
       fill="#2e3436"
       fill-rule="evenodd"
       id="path69" />
  </g>
</svg>
