<svg xmlns="http://www.w3.org/2000/svg" height="128" width="128" xmlns:v="https://vecta.io/nano"><linearGradient id="A" gradientUnits="userSpaceOnUse" x1="8.526" x2="119.646" y1="68.915" y2="68.915"><stop offset="0" stop-color="#3d3846"/><stop offset=".028" stop-color="#77767b"/><stop offset=".1" stop-color="#5e5c64"/><stop offset=".9" stop-color="#504e56"/><stop offset=".969" stop-color="#77767b"/><stop offset="1" stop-color="#3d3846"/></linearGradient><linearGradient id="B" gradientUnits="userSpaceOnUse" x1="8.526" x2="115.417" y1="65.313" y2="84.217"><stop offset="0" stop-color="#77767b"/><stop offset=".384" stop-color="#9a9996"/><stop offset=".721" stop-color="#77767b"/><stop offset="1" stop-color="#68666f"/></linearGradient><clipPath id="C"><path d="M0 0h128v128H0z"/></clipPath><clipPath id="D"><path d="M0 0h128v128H0z"/></clipPath><filter id="E" height="100%" width="100%" x="0%" y="0%"><feColorMatrix in="SourceGraphic" values="0 0 0 0 1 0 0 0 0 1 0 0 0 0 1 0 0 0 1 0"/></filter><mask id="F"><g clip-path="url(#D)" filter="url(#E)"><g clip-path="url(#C)"><path d="M73.93 7.914a1.26 1.26 0 0 0-1.25 1.102l-.441 3.543c-.754.137-1.492.328-2.215.574l-2.141-2.828a1.27 1.27 0 0 0-1.055-.5c-.203.008-.402.066-.578.168l-1.637.945c-.551.316-.777.992-.531 1.578l1.34 3.18a15.38 15.38 0 0 0-1.742 1.641l-3.109-1.309a1.24 1.24 0 0 0-.594-.098c-.414.035-.781.27-.988.625l-.941 1.637a1.26 1.26 0 0 0 .328 1.633l2.523 1.91a14.86 14.86 0 0 0-.785 2.512l-3.023.375a1.26 1.26 0 0 0-1.102 1.25v1.887a1.26 1.26 0 0 0 1.102 1.25l2.801.352c.121.957.336 1.898.645 2.813l-2.16 1.633a1.26 1.26 0 0 0-.328 1.633l.941 1.637c.316.551.992.777 1.578.531l2.336-.984a15.04 15.04 0 0 0 2.129 2.246l-.949 2.25c-.246.586-.02 1.262.531 1.578l1.637.945a1.26 1.26 0 0 0 1.633-.332l1.395-1.844c.992.398 2.039.695 3.121.875l.281 2.254a1.26 1.26 0 0 0 1.25 1.105h1.887a1.26 1.26 0 0 0 1.25-1.105l.281-2.254a14.92 14.92 0 0 0 3.117-.875l1.398 1.844c.383.508 1.086.648 1.637.332l1.633-.945c.551-.316.777-.992.531-1.578l-.949-2.25a15.25 15.25 0 0 0 2.129-2.246l2.332.984a1.26 1.26 0 0 0 1.582-.531l.941-1.637c.32-.551.176-1.25-.328-1.633l-2.156-1.633c.305-.914.52-1.855.641-2.812l2.801-.352c.629-.078 1.102-.613 1.105-1.25v-1.887c-.004-.637-.477-1.172-1.105-1.25l-3.023-.375a14.77 14.77 0 0 0-.785-2.512l2.523-1.91c.508-.383.648-1.086.328-1.633l-.941-1.637c-.207-.355-.574-.59-.988-.625a1.24 1.24 0 0 0-.594.098l-3.105 1.309a15.45 15.45 0 0 0-1.75-1.641l1.344-3.18c.246-.586.02-1.262-.531-1.578L83.5 9.973a1.29 1.29 0 0 0-.883-.145 1.27 1.27 0 0 0-.754.477l-2.141 2.828a14.98 14.98 0 0 0-2.215-.574l-.441-3.543a1.26 1.26 0 0 0-1.25-1.102zM38.113 13.09a1.26 1.26 0 0 0-1.25 1.105l-.441 3.539a15.5 15.5 0 0 0-2.215.574l-2.141-2.828c-.25-.328-.645-.516-1.059-.496a1.25 1.25 0 0 0-.574.164l-1.637.945c-.551.316-.777.992-.531 1.578l1.34 3.176c-.621.504-1.207 1.055-1.742 1.648l-3.109-1.312a1.27 1.27 0 0 0-.891-.031c-.289.098-.535.297-.687.563l-.945 1.633a1.26 1.26 0 0 0 .328 1.633l2.527 1.91a14.77 14.77 0 0 0-.785 2.512l-3.027.379a1.26 1.26 0 0 0-1.102 1.25v1.891c0 .633.473 1.168 1.102 1.246l2.805.352c.121.957.336 1.898.641 2.813l-2.16 1.637c-.504.383-.645 1.082-.328 1.629l.945 1.637c.316.551.992.777 1.578.531l2.336-.984a15.44 15.44 0 0 0 2.125 2.25l-.949 2.246c-.246.586-.016 1.262.535 1.582l1.633.941a1.26 1.26 0 0 0 1.633-.332l1.398-1.844c.992.402 2.035.695 3.117.879l.285 2.254c.078.629.613 1.102 1.246 1.102H40a1.26 1.26 0 0 0 1.25-1.102l.281-2.254c1.082-.184 2.125-.48 3.121-.879l1.398 1.844c.383.508 1.082.652 1.633.332l1.633-.941c.551-.32.777-.996.531-1.582l-.945-2.246a15.45 15.45 0 0 0 2.125-2.25l2.336.984c.586.246 1.262.02 1.578-.531l.945-1.637c.316-.547.176-1.246-.332-1.629l-2.156-1.637c.305-.914.52-1.855.641-2.812l2.805-.352c.629-.078 1.102-.613 1.102-1.246v-1.891a1.26 1.26 0 0 0-1.102-1.25l-3.023-.379c-.191-.859-.453-1.699-.789-2.512l2.523-1.91a1.26 1.26 0 0 0 .332-1.633l-.945-1.633a1.24 1.24 0 0 0-1.578-.527l-3.109 1.309c-.535-.594-1.121-1.145-1.746-1.645l1.34-3.176c.246-.586.02-1.262-.531-1.582l-1.633-.941c-.266-.152-.578-.203-.879-.145a1.26 1.26 0 0 0-.754.477l-2.145 2.828c-.715-.246-1.453-.441-2.211-.574l-.445-3.543c-.078-.629-.613-1.102-1.25-1.105zm36.762 6.785a7.56 7.56 0 0 1 7.555 7.559c0 4.172-3.383 7.555-7.555 7.555s-7.555-3.383-7.555-7.555a7.56 7.56 0 0 1 7.555-7.559zm-35.816 5.18c4.172 0 7.555 3.383 7.555 7.555s-3.383 7.555-7.555 7.555-7.555-3.383-7.555-7.555 3.383-7.555 7.555-7.555zm0 0" fill="#77767b"/><path d="M73.93 7.238a1.26 1.26 0 0 0-1.25 1.105l-.441 3.543a14.41 14.41 0 0 0-2.215.574l-2.141-2.832c-.25-.328-.645-.516-1.055-.496a1.24 1.24 0 0 0-.578.164l-1.637.945a1.26 1.26 0 0 0-.531 1.582L65.422 15a14.76 14.76 0 0 0-1.742 1.645l-3.109-1.312c-.285-.117-.602-.129-.891-.031a1.27 1.27 0 0 0-.691.566l-.941 1.633a1.26 1.26 0 0 0 .332 1.633l2.523 1.91a14.87 14.87 0 0 0-.789 2.512l-3.023.375c-.629.082-1.102.617-1.102 1.25v1.891c0 .633.473 1.168 1.102 1.25l2.805.348c.121.961.336 1.902.641 2.816l-2.156 1.633a1.26 1.26 0 0 0-.332 1.633l.941 1.637c.32.547.996.777 1.582.531l2.332-.984c.633.816 1.348 1.57 2.133 2.25l-.949 2.246c-.246.586-.02 1.262.531 1.578l1.633.945a1.26 1.26 0 0 0 1.633-.332l1.398-1.844c.992.398 2.039.695 3.121.879l.281 2.254c.078.629.613 1.102 1.246 1.102h1.891c.633 0 1.168-.473 1.246-1.102l.285-2.254a15.17 15.17 0 0 0 3.117-.879l1.398 1.844a1.26 1.26 0 0 0 1.633.332l1.633-.945c.551-.316.777-.992.531-1.578l-.945-2.246c.781-.68 1.496-1.434 2.129-2.25l2.332.984a1.26 1.26 0 0 0 1.578-.531l.945-1.637a1.26 1.26 0 0 0-.332-1.633l-2.156-1.633c.305-.914.52-1.855.645-2.816l2.797-.348a1.26 1.26 0 0 0 1.105-1.25v-1.887a1.26 1.26 0 0 0-1.105-1.25l-3.02-.375a15.3 15.3 0 0 0-.789-2.516l2.523-1.906a1.26 1.26 0 0 0 .332-1.633l-.945-1.637c-.207-.355-.574-.59-.988-.625-.199-.016-.406.016-.594.098l-3.105 1.309c-.535-.594-1.121-1.145-1.746-1.645l1.34-3.176a1.26 1.26 0 0 0-.531-1.582L83.5 9.301c-.266-.152-.578-.203-.879-.141s-.57.23-.754.473l-2.145 2.832a14.51 14.51 0 0 0-2.215-.574l-.441-3.543a1.26 1.26 0 0 0-1.246-1.105H73.93zm-35.816 5.18a1.26 1.26 0 0 0-1.25 1.102l-.441 3.543c-.75.133-1.492.324-2.215.57l-2.141-2.828c-.25-.328-.645-.512-1.059-.496a1.24 1.24 0 0 0-.574.168l-1.637.941a1.26 1.26 0 0 0-.531 1.578l1.34 3.18c-.621.504-1.207 1.055-1.746 1.648l-3.105-1.312a1.23 1.23 0 0 0-.891-.031c-.289.098-.535.297-.687.563l-.945 1.633a1.26 1.26 0 0 0 .328 1.633l2.527 1.91c-.336.813-.602 1.656-.789 2.512l-3.023.379a1.26 1.26 0 0 0-1.102 1.25v1.887a1.26 1.26 0 0 0 1.102 1.25l2.801.348c.125.957.34 1.902.645 2.816l-2.16 1.633a1.26 1.26 0 0 0-.328 1.633l.945 1.633a1.26 1.26 0 0 0 1.578.535l2.332-.988c.633.82 1.348 1.574 2.129 2.25l-.949 2.246c-.246.586-.016 1.266.535 1.582l1.633.945c.551.316 1.25.172 1.633-.332l1.398-1.848c.992.402 2.035.699 3.117.879l.285 2.254a1.26 1.26 0 0 0 1.246 1.105H40a1.26 1.26 0 0 0 1.25-1.105l.281-2.254a15.03 15.03 0 0 0 3.121-.879l1.398 1.848a1.26 1.26 0 0 0 1.633.332l1.633-.945c.551-.316.781-.996.531-1.582l-.949-2.246a15.48 15.48 0 0 0 2.129-2.25l2.336.988a1.26 1.26 0 0 0 1.578-.535l.945-1.633a1.26 1.26 0 0 0-.332-1.633l-2.156-1.633c.305-.914.52-1.859.641-2.816l2.805-.348c.629-.082 1.102-.617 1.102-1.25v-1.887a1.26 1.26 0 0 0-1.102-1.25l-3.023-.379c-.191-.855-.453-1.699-.789-2.512l2.523-1.91a1.26 1.26 0 0 0 .332-1.633l-.945-1.633a1.25 1.25 0 0 0-.984-.625c-.203-.016-.406.016-.594.094l-3.109 1.313c-.535-.594-1.121-1.145-1.746-1.645l1.34-3.18c.246-.586.02-1.262-.531-1.578l-1.633-.945c-.266-.152-.578-.203-.879-.145a1.26 1.26 0 0 0-.754.477l-2.145 2.828a14.93 14.93 0 0 0-2.211-.574l-.445-3.543A1.26 1.26 0 0 0 40 12.418zm36.762 6.785c4.172 0 7.555 3.383 7.555 7.555s-3.383 7.555-7.555 7.555a7.56 7.56 0 0 1-7.559-7.555 7.56 7.56 0 0 1 7.559-7.555zm-35.816 5.176c4.172 0 7.555 3.383 7.555 7.555s-3.383 7.555-7.555 7.555-7.555-3.383-7.555-7.555 3.383-7.555 7.555-7.555zm0 0" fill="#f6f5f4"/><path d="M17.074 31.086h94.02c4.719 0 8.547 3.227 8.547 7.207v70.25c0 3.98-3.828 7.207-8.547 7.207h-94.02c-4.723 0-8.547-3.227-8.547-7.207v-70.25c0-3.98 3.824-7.207 8.547-7.207zm0 0" fill="url(#A)"/><path d="M17.074 22.082h94.02c4.719 0 8.547 3.223 8.547 7.203v72.051c0 3.98-3.828 7.207-8.547 7.207h-94.02c-4.723 0-8.547-3.227-8.547-7.207V29.285c0-3.977 3.824-7.203 8.547-7.203zm0 0" fill="url(#B)"/><path d="M17.074 23.883h94.02c3.539 0 6.41 2.418 6.41 5.402v72.051c0 2.984-2.871 5.406-6.41 5.406h-94.02c-3.539 0-6.41-2.422-6.41-5.406V29.285c0-2.984 2.871-5.402 6.41-5.402zm0 0" fill="#5e5c64"/><path d="M64.082 42.949a14.74 14.74 0 0 0-12.91 7.32c-2.672 4.59-2.672 10.258 0 14.844s7.602 7.383 12.91 7.324a14.75 14.75 0 0 0 12.914-7.324c2.672-4.586 2.672-10.254 0-14.844s-7.605-7.383-12.914-7.32zM39.633 78.246c-1.277 0-2.305 1.031-2.305 2.309v6.809c-.004.613.238 1.203.672 1.637s1.02.676 1.633.672h48.898c1.277 0 2.309-1.027 2.309-2.309v-6.809c0-1.277-1.031-2.309-2.309-2.309zm0 0" fill="#241f31"/><path d="M78.824 55.695c.063 5.305-2.734 10.238-7.32 12.91s-10.258 2.672-14.844 0-7.383-7.605-7.32-12.91c-.062-5.309 2.734-10.242 7.32-12.914s10.258-2.672 14.844 0 7.383 7.605 7.32 12.914zm0 0" fill="#c0bfbc"/><path d="M64.082 44.238a4.31 4.31 0 0 0-4.305 4.309c0 2.379 1.926 4.305 4.305 4.305a4.31 4.31 0 0 0 4.309-4.305c-.004-2.379-1.93-4.305-4.309-4.309zM61.93 54.293a6.45 6.45 0 0 0-4.574 1.887c-1.215 1.215-1.895 2.859-1.887 4.574v.719c-.004.762.297 1.492.836 2.035a2.86 2.86 0 0 0 2.035.836h11.484c.766.004 1.496-.297 2.035-.836a2.87 2.87 0 0 0 .84-2.035v-.719a6.46 6.46 0 0 0-6.465-6.461zm0 0" fill="#241f31"/><path d="M96.469 42.641c-3.426 2.965-5.602 7.34-5.629 12.223-.039 5.828 3.039 11.23 8.066 14.172l-.004.145-.234 38.719c-.027 4.516 3.586 8.172 8.102 8.199a8.13 8.13 0 0 0 8.203-8.102l.234-38.719v-.145a16.3 16.3 0 0 0 8.238-14.07c.039-6.844-4.137-12.723-10.098-15.18l-.078 13.078-6.133 3.02-6.094-3.094.078-13.078c-1.187.473-2.305 1.078-3.336 1.801a15.24 15.24 0 0 0-1.312 1.031zm8.316 62.012c.566-.508 1.301-.785 2.063-.781 1.688.016 3.043 1.387 3.039 3.074-.016 1.688-1.391 3.047-3.074 3.039s-3.047-1.391-3.039-3.078a3.04 3.04 0 0 1 1.012-2.254zm0 0" fill="#1a5fb4"/><path d="M96.48 40.602a16.28 16.28 0 0 0-5.629 12.227A16.3 16.3 0 0 0 98.918 67v.141l-.234 38.723a8.13 8.13 0 1 0 16.301.098l.234-38.719v-.141c5.063-2.883 8.207-8.25 8.238-14.074.039-6.844-4.137-12.723-10.098-15.18l-.09 15.117-6.133 3.02-6.098-3.094.094-15.117a16.34 16.34 0 0 0-3.332 1.801c-.461.32-.895.668-1.316 1.031zm8.316 62.012c.547-.488 1.27-.785 2.063-.781 1.688.016 3.043 1.391 3.035 3.078a3.06 3.06 0 0 1-3.074 3.035c-1.687-.012-3.043-1.387-3.035-3.074a3.04 3.04 0 0 1 1.016-2.258zm0 0" fill="#62a0ea"/></g></g></mask><mask id="G"><g filter="url(#E)"><path fill-opacity=".8" d="M0 0h128v128H0z"/></g></mask><linearGradient id="H" gradientTransform="matrix(0 0.37 -0.98462 0 295.38501 -30.360001)" gradientUnits="userSpaceOnUse" x1="300" x2="428" y1="235" y2="235"><stop offset="0" stop-color="#f9f06b"/><stop offset="1" stop-color="#f5c211"/></linearGradient><clipPath id="I"><path d="M0 0h128v128H0z"/></clipPath><clipPath id="J"><path d="M0 0h128v128H0z"/></clipPath><path d="M73.93 7.914a1.26 1.26 0 0 0-1.25 1.102l-.441 3.543c-.754.137-1.492.328-2.215.574l-2.141-2.828a1.27 1.27 0 0 0-1.055-.5c-.203.008-.402.066-.578.168l-1.637.945c-.551.316-.777.992-.531 1.578l1.34 3.18a15.38 15.38 0 0 0-1.742 1.641l-3.109-1.309a1.24 1.24 0 0 0-.594-.098c-.414.035-.781.27-.988.625l-.941 1.637a1.26 1.26 0 0 0 .328 1.633l2.523 1.91a14.86 14.86 0 0 0-.785 2.512l-3.023.375a1.26 1.26 0 0 0-1.102 1.25v1.887a1.26 1.26 0 0 0 1.102 1.25l2.801.352c.121.957.336 1.898.645 2.813l-2.16 1.633a1.26 1.26 0 0 0-.328 1.633l.941 1.637c.316.551.992.777 1.578.531l2.336-.984a15.04 15.04 0 0 0 2.129 2.246l-.949 2.25c-.246.586-.02 1.262.531 1.578l1.637.945a1.26 1.26 0 0 0 1.633-.332l1.395-1.844c.992.398 2.039.695 3.121.875l.281 2.254a1.26 1.26 0 0 0 1.25 1.105h1.887a1.26 1.26 0 0 0 1.25-1.105l.281-2.254a14.92 14.92 0 0 0 3.117-.875l1.398 1.844c.383.508 1.086.648 1.637.332l1.633-.945c.551-.316.777-.992.531-1.578l-.949-2.25a15.25 15.25 0 0 0 2.129-2.246l2.332.984a1.26 1.26 0 0 0 1.582-.531l.941-1.637c.32-.551.176-1.25-.328-1.633l-2.156-1.633c.305-.914.52-1.855.641-2.812l2.801-.352c.629-.078 1.102-.613 1.105-1.25v-1.887c-.004-.637-.477-1.172-1.105-1.25l-3.023-.375a14.77 14.77 0 0 0-.785-2.512l2.523-1.91c.508-.383.648-1.086.328-1.633l-.941-1.637c-.207-.355-.574-.59-.988-.625a1.24 1.24 0 0 0-.594.098l-3.105 1.309a15.45 15.45 0 0 0-1.75-1.641l1.344-3.18c.246-.586.02-1.262-.531-1.578L83.5 9.973a1.29 1.29 0 0 0-.883-.145 1.27 1.27 0 0 0-.754.477l-2.141 2.828a14.98 14.98 0 0 0-2.215-.574l-.441-3.543a1.26 1.26 0 0 0-1.25-1.102zM38.113 13.09a1.26 1.26 0 0 0-1.25 1.105l-.441 3.539a15.5 15.5 0 0 0-2.215.574l-2.141-2.828c-.25-.328-.645-.516-1.059-.496a1.25 1.25 0 0 0-.574.164l-1.637.945c-.551.316-.777.992-.531 1.578l1.34 3.176c-.621.504-1.207 1.055-1.742 1.648l-3.109-1.312a1.27 1.27 0 0 0-.891-.031c-.289.098-.535.297-.687.563l-.945 1.633a1.26 1.26 0 0 0 .328 1.633l2.527 1.91a14.77 14.77 0 0 0-.785 2.512l-3.027.379a1.26 1.26 0 0 0-1.102 1.25v1.891c0 .633.473 1.168 1.102 1.246l2.805.352c.121.957.336 1.898.641 2.813l-2.16 1.637c-.504.383-.645 1.082-.328 1.629l.945 1.637c.316.551.992.777 1.578.531l2.336-.984a15.44 15.44 0 0 0 2.125 2.25l-.949 2.246c-.246.586-.016 1.262.535 1.582l1.633.941a1.26 1.26 0 0 0 1.633-.332l1.398-1.844c.992.402 2.035.695 3.117.879l.285 2.254c.078.629.613 1.102 1.246 1.102H40a1.26 1.26 0 0 0 1.25-1.102l.281-2.254c1.082-.184 2.125-.48 3.121-.879l1.398 1.844c.383.508 1.082.652 1.633.332l1.633-.941c.551-.32.777-.996.531-1.582l-.945-2.246a15.45 15.45 0 0 0 2.125-2.25l2.336.984c.586.246 1.262.02 1.578-.531l.945-1.637c.316-.547.176-1.246-.332-1.629l-2.156-1.637c.305-.914.52-1.855.641-2.812l2.805-.352c.629-.078 1.102-.613 1.102-1.246v-1.891a1.26 1.26 0 0 0-1.102-1.25l-3.023-.379c-.191-.859-.453-1.699-.789-2.512l2.523-1.91a1.26 1.26 0 0 0 .332-1.633l-.945-1.633a1.24 1.24 0 0 0-1.578-.527l-3.109 1.309c-.535-.594-1.121-1.145-1.746-1.645l1.34-3.176c.246-.586.02-1.262-.531-1.582l-1.633-.941c-.266-.152-.578-.203-.879-.145a1.26 1.26 0 0 0-.754.477l-2.145 2.828c-.715-.246-1.453-.441-2.211-.574l-.445-3.543c-.078-.629-.613-1.102-1.25-1.105zm36.762 6.785a7.56 7.56 0 0 1 7.555 7.559c0 4.172-3.383 7.555-7.555 7.555s-7.555-3.383-7.555-7.555a7.56 7.56 0 0 1 7.555-7.559zm-35.816 5.18c4.172 0 7.555 3.383 7.555 7.555s-3.383 7.555-7.555 7.555-7.555-3.383-7.555-7.555 3.383-7.555 7.555-7.555zm0 0" fill="#77767b"/><path d="M73.93 7.238a1.26 1.26 0 0 0-1.25 1.105l-.441 3.543a14.41 14.41 0 0 0-2.215.574l-2.141-2.832c-.25-.328-.645-.516-1.055-.496a1.24 1.24 0 0 0-.578.164l-1.637.945a1.26 1.26 0 0 0-.531 1.582L65.422 15a14.76 14.76 0 0 0-1.742 1.645l-3.109-1.312c-.285-.117-.602-.129-.891-.031a1.27 1.27 0 0 0-.691.566l-.941 1.633a1.26 1.26 0 0 0 .332 1.633l2.523 1.91a14.87 14.87 0 0 0-.789 2.512l-3.023.375c-.629.082-1.102.617-1.102 1.25v1.891c0 .633.473 1.168 1.102 1.25l2.805.348c.121.961.336 1.902.641 2.816l-2.156 1.633a1.26 1.26 0 0 0-.332 1.633l.941 1.637c.32.547.996.777 1.582.531l2.332-.984c.633.816 1.348 1.57 2.133 2.25l-.949 2.246c-.246.586-.02 1.262.531 1.578l1.633.945a1.26 1.26 0 0 0 1.633-.332l1.398-1.844c.992.398 2.039.695 3.121.879l.281 2.254c.078.629.613 1.102 1.246 1.102h1.891c.633 0 1.168-.473 1.246-1.102l.285-2.254a15.17 15.17 0 0 0 3.117-.879l1.398 1.844a1.26 1.26 0 0 0 1.633.332l1.633-.945c.551-.316.777-.992.531-1.578l-.945-2.246c.781-.68 1.496-1.434 2.129-2.25l2.332.984a1.26 1.26 0 0 0 1.578-.531l.945-1.637a1.26 1.26 0 0 0-.332-1.633l-2.156-1.633c.305-.914.52-1.855.645-2.816l2.797-.348a1.26 1.26 0 0 0 1.105-1.25v-1.887a1.26 1.26 0 0 0-1.105-1.25l-3.02-.375a15.3 15.3 0 0 0-.789-2.516l2.523-1.906a1.26 1.26 0 0 0 .332-1.633l-.945-1.637c-.207-.355-.574-.59-.988-.625-.199-.016-.406.016-.594.098l-3.105 1.309c-.535-.594-1.121-1.145-1.746-1.645l1.34-3.176a1.26 1.26 0 0 0-.531-1.582L83.5 9.301c-.266-.152-.578-.203-.879-.141s-.57.23-.754.473l-2.145 2.832a14.51 14.51 0 0 0-2.215-.574l-.441-3.543a1.26 1.26 0 0 0-1.246-1.105H73.93zm-35.816 5.18a1.26 1.26 0 0 0-1.25 1.102l-.441 3.543c-.75.133-1.492.324-2.215.57l-2.141-2.828c-.25-.328-.645-.512-1.059-.496a1.24 1.24 0 0 0-.574.168l-1.637.941a1.26 1.26 0 0 0-.531 1.578l1.34 3.18c-.621.504-1.207 1.055-1.746 1.648l-3.105-1.312a1.23 1.23 0 0 0-.891-.031c-.289.098-.535.297-.687.563l-.945 1.633a1.26 1.26 0 0 0 .328 1.633l2.527 1.91c-.336.813-.602 1.656-.789 2.512l-3.023.379a1.26 1.26 0 0 0-1.102 1.25v1.887a1.26 1.26 0 0 0 1.102 1.25l2.801.348c.125.957.34 1.902.645 2.816l-2.16 1.633a1.26 1.26 0 0 0-.328 1.633l.945 1.633a1.26 1.26 0 0 0 1.578.535l2.332-.988c.633.82 1.348 1.574 2.129 2.25l-.949 2.246c-.246.586-.016 1.266.535 1.582l1.633.945c.551.316 1.25.172 1.633-.332l1.398-1.848c.992.402 2.035.699 3.117.879l.285 2.254a1.26 1.26 0 0 0 1.246 1.105H40a1.26 1.26 0 0 0 1.25-1.105l.281-2.254a15.03 15.03 0 0 0 3.121-.879l1.398 1.848a1.26 1.26 0 0 0 1.633.332l1.633-.945c.551-.316.781-.996.531-1.582l-.949-2.246a15.48 15.48 0 0 0 2.129-2.25l2.336.988a1.26 1.26 0 0 0 1.578-.535l.945-1.633a1.26 1.26 0 0 0-.332-1.633l-2.156-1.633c.305-.914.52-1.859.641-2.816l2.805-.348c.629-.082 1.102-.617 1.102-1.25v-1.887a1.26 1.26 0 0 0-1.102-1.25l-3.023-.379c-.191-.855-.453-1.699-.789-2.512l2.523-1.91a1.26 1.26 0 0 0 .332-1.633l-.945-1.633a1.25 1.25 0 0 0-.984-.625c-.203-.016-.406.016-.594.094l-3.109 1.313c-.535-.594-1.121-1.145-1.746-1.645l1.34-3.18c.246-.586.02-1.262-.531-1.578l-1.633-.945c-.266-.152-.578-.203-.879-.145a1.26 1.26 0 0 0-.754.477l-2.145 2.828a14.93 14.93 0 0 0-2.211-.574l-.445-3.543A1.26 1.26 0 0 0 40 12.418zm36.762 6.785c4.172 0 7.555 3.383 7.555 7.555s-3.383 7.555-7.555 7.555a7.56 7.56 0 0 1-7.559-7.555 7.56 7.56 0 0 1 7.559-7.555zm-35.816 5.176c4.172 0 7.555 3.383 7.555 7.555s-3.383 7.555-7.555 7.555-7.555-3.383-7.555-7.555 3.383-7.555 7.555-7.555zm0 0" fill="#f6f5f4"/><path d="M17.074 31.086h94.02c4.719 0 8.547 3.227 8.547 7.207v70.25c0 3.98-3.828 7.207-8.547 7.207h-94.02c-4.723 0-8.547-3.227-8.547-7.207v-70.25c0-3.98 3.824-7.207 8.547-7.207zm0 0" fill="url(#A)"/><path d="M17.074 22.082h94.02c4.719 0 8.547 3.223 8.547 7.203v72.051c0 3.98-3.828 7.207-8.547 7.207h-94.02c-4.723 0-8.547-3.227-8.547-7.207V29.285c0-3.977 3.824-7.203 8.547-7.203zm0 0" fill="url(#B)"/><path d="M17.074 23.883h94.02c3.539 0 6.41 2.418 6.41 5.402v72.051c0 2.984-2.871 5.406-6.41 5.406h-94.02c-3.539 0-6.41-2.422-6.41-5.406V29.285c0-2.984 2.871-5.402 6.41-5.402zm0 0" fill="#5e5c64"/><path d="M64.082 42.949a14.74 14.74 0 0 0-12.91 7.32c-2.672 4.59-2.672 10.258 0 14.844s7.602 7.383 12.91 7.324a14.75 14.75 0 0 0 12.914-7.324c2.672-4.586 2.672-10.254 0-14.844s-7.605-7.383-12.914-7.32zM39.633 78.246c-1.277 0-2.305 1.031-2.305 2.309v6.809c-.004.613.238 1.203.672 1.637s1.02.676 1.633.672h48.898c1.277 0 2.309-1.027 2.309-2.309v-6.809c0-1.277-1.031-2.309-2.309-2.309zm0 0" fill="#241f31"/><path d="M78.824 55.695c.063 5.305-2.734 10.238-7.32 12.91s-10.258 2.672-14.844 0-7.383-7.605-7.32-12.91c-.062-5.309 2.734-10.242 7.32-12.914s10.258-2.672 14.844 0 7.383 7.605 7.32 12.914zm0 0" fill="#c0bfbc"/><path d="M64.082 44.238a4.31 4.31 0 0 0-4.305 4.309c0 2.379 1.926 4.305 4.305 4.305a4.31 4.31 0 0 0 4.309-4.305c-.004-2.379-1.93-4.305-4.309-4.309zM61.93 54.293a6.45 6.45 0 0 0-4.574 1.887c-1.215 1.215-1.895 2.859-1.887 4.574v.719c-.004.762.297 1.492.836 2.035a2.86 2.86 0 0 0 2.035.836h11.484c.766.004 1.496-.297 2.035-.836a2.87 2.87 0 0 0 .84-2.035v-.719a6.46 6.46 0 0 0-6.465-6.461zm0 0" fill="#241f31"/><path d="M96.469 42.641c-3.426 2.965-5.602 7.34-5.629 12.223-.039 5.828 3.039 11.23 8.066 14.172l-.004.145-.234 38.719c-.027 4.516 3.586 8.172 8.102 8.199a8.13 8.13 0 0 0 8.203-8.102l.234-38.719v-.145a16.3 16.3 0 0 0 8.238-14.07c.039-6.844-4.137-12.723-10.098-15.18l-.078 13.078-6.133 3.02-6.094-3.094.078-13.078c-1.187.473-2.305 1.078-3.336 1.801a15.24 15.24 0 0 0-1.312 1.031zm8.316 62.012c.566-.508 1.301-.785 2.063-.781 1.688.016 3.043 1.387 3.039 3.074-.016 1.688-1.391 3.047-3.074 3.039s-3.047-1.391-3.039-3.078a3.04 3.04 0 0 1 1.012-2.254zm0 0" fill="#1a5fb4"/><path d="M96.48 40.602a16.28 16.28 0 0 0-5.629 12.227A16.3 16.3 0 0 0 98.918 67v.141l-.234 38.723a8.13 8.13 0 1 0 16.301.098l.234-38.719v-.141c5.063-2.883 8.207-8.25 8.238-14.074.039-6.844-4.137-12.723-10.098-15.18l-.09 15.117-6.133 3.02-6.098-3.094.094-15.117a16.34 16.34 0 0 0-3.332 1.801c-.461.32-.895.668-1.316 1.031zm8.316 62.012c.547-.488 1.27-.785 2.063-.781 1.688.016 3.043 1.391 3.035 3.078a3.06 3.06 0 0 1-3.074 3.035c-1.687-.012-3.043-1.387-3.035-3.074a3.04 3.04 0 0 1 1.016-2.258zm0 0" fill="#62a0ea"/><g clip-path="url(#J)" mask="url(#F)"><g clip-path="url(#I)" mask="url(#G)"><path d="M128 80.641V128H0V80.641zm0 0" fill="url(#H)"/><path d="M13.309 80.641L60.664 128h21.215L34.52 80.641zm42.422 0L103.094 128h21.215L76.945 80.641zm42.43 0L128 110.48V89.27l-8.629-8.629zM0 88.547v21.215L18.238 128h21.215zm0 0"/></g></g></svg>