<svg xmlns="http://www.w3.org/2000/svg" width="30.047" height="30.047" viewBox="0 0 7.95 7.95"><path d="M1.056.421C.467.421-.013.918-.013 1.506v4.674c0 .587.48 1.084 1.069 1.084h2.452 0a.45.45 0 0 0 .327-.143c.087-.092.135-.216.135-.346s-.049-.254-.135-.346a.45.45 0 0 0-.327-.143h0-2.452c-.06 0-.092-.04-.092-.107V1.506c0-.067.032-.107.092-.107h5.682c.06 0 .092.04.092.107V3.17h0c0 .265.219.48.489.48s.489-.215.489-.48V1.506c0-.587-.48-1.084-1.069-1.084zm2.841 1.717a.73.73 0 0 0 0 1.461.73.73 0 0 0 0-1.461zm2.231 1.555a.24.24 0 0 0-.24.24v.057c0 .112-.09.216-.197.251-.121.041-.255.011-.321-.081l-.034-.047c-.037-.051-.094-.086-.156-.096s-.126.006-.178.042a.24.24 0 0 0-.053.335l.034.048c.066.091.054.228-.011.318-.074.102-.202.155-.308.121l-.055-.017a.24.24 0 0 0-.302.153.24.24 0 0 0 .153.302l.053.017c.107.034.177.153.18.264v.017c.003.111-.073.23-.179.265l-.054.017c-.126.04-.195.176-.153.302a.24.24 0 0 0 .302.155l.055-.02c.107-.034.234.02.3.11.075.101.086.24.02.33l-.034.049c-.078.107-.054.257.053.334a.24.24 0 0 0 .334-.053l.034-.048c.066-.09.2-.122.306-.086.121.039.211.144.211.257v.057a.24.24 0 0 0 .24.24.24.24 0 0 0 .24-.24V7.23c0-.112.091-.217.198-.251.12-.041.255-.011.32.081l.035.048a.24.24 0 0 0 .334.053.24.24 0 0 0 .053-.334l-.034-.049c-.066-.09-.054-.228.011-.318.074-.102.202-.155.308-.121l.056.02a.24.24 0 0 0 .302-.155.24.24 0 0 0-.153-.302l-.055-.017c-.107-.034-.176-.153-.178-.265-.004-.128.071-.246.178-.281l.055-.017a.24.24 0 0 0 .153-.302.24.24 0 0 0-.302-.153l-.055.017c-.107.034-.234-.02-.3-.11-.075-.101-.086-.239-.02-.33l.034-.048a.24.24 0 0 0-.053-.335c-.051-.037-.115-.053-.178-.042s-.12.044-.156.096l-.034.047c-.066.091-.2.122-.306.087-.123-.039-.214-.144-.214-.257v-.057a.24.24 0 0 0-.24-.24h0zm-2.596.149c-.607 0-1.096.489-1.096 1.096v.122c0 .27.217.487.487.487H4.17a.59.59 0 0 1-.193-.634c.088-.274.369-.438.646-.395a.59.59 0 0 1 .042-.599 1.1 1.1 0 0 0-.403-.076zm1.18.694h.002zm1.416.115c.209 0 .402.066.559.178.172.125.292.29.355.482v.002c.071.206.038.399.001.591l-.001.003c-.062.192-.182.357-.339.474-.172.124-.364.189-.573.189s-.394-.064-.549-.171l-.023-.017c-.155-.116-.275-.278-.337-.466-.072-.217-.041-.408-.005-.598a.97.97 0 0 1 .344-.478c.011-.006.017-.011.02-.014.155-.108.344-.171.549-.171zm1.464 1.97l-.003.006h0zm.042.082l.017.036.017-.032-.035-.003z" fill="#241f31"/></svg>
