<?xml version="1.0" encoding="UTF-8"?>
<svg width="16" height="16" version="1.1" viewBox="0 0 4.23 4.23" xmlns="http://www.w3.org/2000/svg">
 <path d="m0.811 0.0488c-0.405 0-0.738 0.336-0.738 0.74v2.68c0 0.405 0.334 0.738 0.738 0.738h2.61c0.405 0 0.738-0.334 0.738-0.738v-2.68c0-0.405-0.334-0.74-0.738-0.74zm0 0.529h2.61c0.121 0 0.209 0.0903 0.209 0.211v2.68c0 0.121-0.0883 0.209-0.209 0.209h-2.61c-0.121 0-0.209-0.0883-0.209-0.209v-2.68c0-0.121 0.0883-0.211 0.209-0.211z" color="#000000" style="-inkscape-stroke:none"/>
 <path d="m2.14 0.752a0.659 0.659 0 0 0-0.659 0.659 0.659 0.659 0 0 0 0.61 0.657 1.36 1.43 0 0 0-1.33 1.4l2.71-0.0031a1.36 1.43 0 0 0-1.33-1.4 0.659 0.659 0 0 0 0.658-0.658 0.659 0.659 0 0 0-0.658-0.659z"/>
</svg>
