<?xml version="1.0" encoding="UTF-8" standalone="no"?>
<!-- Created with Inkscape (http://www.inkscape.org/) -->

<svg
   width="100mm"
   height="80mm"
   viewBox="0 0 100 80"
   version="1.1"
   id="svg272"
   xml:space="preserve"
   sodipodi:docname="io.github.realmazharhussein.GdmSettings-simple.svg"
   inkscape:version="1.2 (dc2aedaf03, 2022-05-15)"
   xmlns:inkscape="http://www.inkscape.org/namespaces/inkscape"
   xmlns:sodipodi="http://sodipodi.sourceforge.net/DTD/sodipodi-0.dtd"
   xmlns="http://www.w3.org/2000/svg"
   xmlns:svg="http://www.w3.org/2000/svg"><sodipodi:namedview
     id="namedview51"
     pagecolor="#ffffff"
     bordercolor="#000000"
     borderopacity="0.25"
     inkscape:showpageshadow="2"
     inkscape:pageopacity="0.0"
     inkscape:pagecheckerboard="0"
     inkscape:deskcolor="#d1d1d1"
     inkscape:document-units="mm"
     showgrid="false"
     inkscape:zoom="1.5544271"
     inkscape:cx="189.45887"
     inkscape:cy="151.1811"
     inkscape:window-width="1366"
     inkscape:window-height="699"
     inkscape:window-x="0"
     inkscape:window-y="0"
     inkscape:window-maximized="1"
     inkscape:current-layer="g5031" /><defs
     id="defs269"><linearGradient
       id="a"
       gradientUnits="userSpaceOnUse"
       x1="11.999989"
       x2="115.99999"
       y1="64"
       y2="64"
       gradientTransform="matrix(0.53037067,0,0,0.44708491,59.633097,124.66982)"><stop
         offset="0"
         stop-color="#3d3846"
         id="stop4541" /><stop
         offset="0.02847844"
         stop-color="#77767b"
         id="stop4543" /><stop
         offset="0.1"
         stop-color="#5e5c64"
         id="stop4545" /><stop
         offset="0.899999"
         stop-color="#504e56"
         id="stop4547" /><stop
         offset="0.9685533"
         stop-color="#77767b"
         id="stop4549" /><stop
         offset="1"
         stop-color="#3d3846"
         id="stop4551" /></linearGradient><linearGradient
       id="b"
       gradientUnits="userSpaceOnUse"
       x1="12"
       x2="112.04102"
       y1="60"
       y2="80.988281"
       gradientTransform="matrix(0.53037067,0,0,0.44708491,59.633097,124.66982)"><stop
         offset="0"
         stop-color="#77767b"
         id="stop4554" /><stop
         offset="0.384443"
         stop-color="#9a9996"
         id="stop4556" /><stop
         offset="0.720567"
         stop-color="#77767b"
         id="stop4558" /><stop
         offset="1"
         stop-color="#68666f"
         id="stop4560" /></linearGradient></defs><g
     id="layer1"
     transform="translate(-61.776707,-113.69615)"><g
       style="display:inline;enable-background:new"
       id="g4365"
       transform="matrix(0.49687763,0,0,0.49687763,67.884533,124.61788)"><g
         id="layer1-3"
         style="display:inline"
         transform="translate(0,-172)"><g
           id="layer2"
           style="display:inline"><g
             style="display:inline;fill:#000000;enable-background:new"
             transform="matrix(7.9911709,0,0,8.0036407,-167.7909,-4846.0776)"
             id="g12027" /><rect
             style="display:inline;overflow:visible;visibility:visible;fill:#f0f0f0;fill-opacity:1;fill-rule:nonzero;stroke:none;stroke-width:0.5;marker:none;enable-background:accumulate"
             id="rect13805"
             width="128"
             height="128"
             x="9.2651362e-08"
             y="172" /><g
             id="g883"
             style="fill:none;fill-opacity:0.25098;stroke:#a579b3;stroke-opacity:1"
             transform="translate(-24,24)" /><g
             id="g900"
             style="fill:none;fill-opacity:0.25098;stroke:#a579b3;stroke-opacity:1"
             transform="translate(-24,24)" /><rect
             y="171.46751"
             x="160"
             height="16"
             width="16"
             id="rect859"
             style="display:inline;overflow:visible;visibility:visible;fill:#f0f0f0;fill-opacity:1;fill-rule:nonzero;stroke:none;stroke-width:0.5;marker:none;enable-background:accumulate" /><text
             xml:space="preserve"
             style="font-style:normal;font-variant:normal;font-weight:bold;font-stretch:normal;font-size:4px;line-height:125%;font-family:Cantarell;-inkscape-font-specification:'Cantarell, Bold';text-align:start;writing-mode:lr-tb;text-anchor:start;display:inline;fill:#000000;fill-opacity:1;stroke:none;stroke-width:0.332649;enable-background:new"
             x="0"
             y="164"
             id="text863"><tspan
               style="font-size:4px;stroke-width:0.332649"
               id="tspan861"
               x="0"
               y="164">Hicolor</tspan></text><text
             id="text867"
             y="164"
             x="160"
             style="font-style:normal;font-variant:normal;font-weight:bold;font-stretch:normal;font-size:4px;line-height:125%;font-family:Cantarell;-inkscape-font-specification:'Cantarell, Bold';text-align:start;writing-mode:lr-tb;text-anchor:start;display:inline;fill:#000000;fill-opacity:1;stroke:none;stroke-width:0.332649;enable-background:new"
             xml:space="preserve"><tspan
               y="164"
               x="160"
               id="tspan865"
               style="font-size:4px;stroke-width:0.332649">Symbolic</tspan></text></g><g
           id="layer9"
           style="display:inline" /></g></g></g><g
     id="layer4"
     transform="translate(-61.776707,-113.69615)"><g
       id="g5031"
       transform="translate(6.1078257,5.4779373)"><g
         id="g4702"
         transform="translate(15.794545,-2.569834)"><path
           id="path4698"
           style="color:#000000;display:inline;fill:#77767b;stroke-width:1.25022;stroke-linecap:round;stroke-linejoin:round"
           d="m 80.684858,125.57187 a 0.62517125,0.62517125 0 0 0 -0.620222,0.54758 l -0.219765,1.75812 c -0.376748,0.0673 -0.743881,0.16266 -1.099437,0.28448 l -1.063112,-1.40406 a 0.62517125,0.62517125 0 0 0 -0.374516,-0.23533 0.62517125,0.62517125 0 0 0 -0.149867,-0.0119 0.62517125,0.62517125 0 0 0 -0.286608,0.083 l -0.811907,0.46883 a 0.62517125,0.62517125 0 0 0 -0.263415,0.78444 l 0.665402,1.57773 c -0.309355,0.24963 -0.599449,0.52251 -0.86594,0.8171 l -1.543237,-0.65106 a 0.62517125,0.62517125 0 0 0 -0.294849,-0.047 0.62517125,0.62517125 0 0 0 -0.147119,0.0306 0.62517125,0.62517125 0 0 0 -0.342468,0.27989 l -0.468831,0.81191 a 0.62517125,0.62517125 0 0 0 0.164213,0.81099 l 1.252352,0.94805 c -0.165058,0.39988 -0.296331,0.81656 -0.390386,1.24686 l -1.500504,0.18741 a 0.62517125,0.62517125 0 0 0 -0.547583,0.62022 v 0.93766 a 0.62517125,0.62517125 0 0 0 0.547583,0.62023 l 1.390925,0.17397 c 0.06179,0.48118 0.169134,0.94835 0.318664,1.39735 l -1.071051,0.81099 a 0.62517125,0.62517125 0 0 0 -0.164213,0.81099 l 0.468831,0.81191 a 0.62517125,0.62517125 0 0 0 0.784436,0.26342 l 1.158349,-0.48867 c 0.31343,0.40702 0.667646,0.78103 1.056089,1.11652 l -0.470663,1.11591 a 0.62517125,0.62517125 0 0 0 0.263415,0.78445 l 0.811907,0.46883 a 0.62517125,0.62517125 0 0 0 0.81069,-0.16421 l 0.694089,-0.91661 c 0.493226,0.19876 1.011377,0.34665 1.54873,0.43648 l 0.139796,1.11867 a 0.62517125,0.62517125 0 0 0 0.620222,0.54757 h 0.937663 a 0.62517125,0.62517125 0 0 0 0.620228,-0.54757 l 0.139796,-1.11867 c 0.537253,-0.0898 1.055274,-0.23778 1.548423,-0.43648 l 0.694089,0.91661 a 0.62517125,0.62517125 0 0 0 0.810997,0.16421 l 0.811908,-0.46883 a 0.62517125,0.62517125 0 0 0 0.263413,-0.78445 l -0.470662,-1.11591 c 0.388443,-0.33549 0.742658,-0.7095 1.056089,-1.11652 l 1.158343,0.48867 a 0.62517125,0.62517125 0 0 0 0.784441,-0.26342 l 0.468832,-0.81191 a 0.62517125,0.62517125 0 0 0 -0.164213,-0.81099 l -1.071051,-0.81099 c 0.14953,-0.449 0.256876,-0.91617 0.318658,-1.39735 l 1.390931,-0.17397 a 0.62517125,0.62517125 0 0 0 0.547577,-0.62023 v -0.93766 a 0.62517125,0.62517125 0 0 0 -0.547577,-0.62022 l -1.500509,-0.18742 c -0.09405,-0.43029 -0.225323,-0.84697 -0.390387,-1.24685 l 1.252358,-0.94805 a 0.62517125,0.62517125 0 0 0 0.164213,-0.81099 l -0.468832,-0.81191 a 0.62517125,0.62517125 0 0 0 -0.342467,-0.27989 0.62517125,0.62517125 0 0 0 -0.147125,-0.0306 0.62517125,0.62517125 0 0 0 -0.294849,0.047 l -1.543237,0.65106 c -0.266485,-0.29459 -0.556579,-0.56747 -0.865934,-0.8171 l 0.665401,-1.57773 a 0.62517125,0.62517125 0 0 0 -0.263413,-0.78413 l -0.811908,-0.46883 a 0.62517125,0.62517125 0 0 0 -0.286615,-0.0833 0.62517125,0.62517125 0 0 0 -0.149866,0.0119 0.62517125,0.62517125 0 0 0 -0.374516,0.23533 l -1.063112,1.40405 c -0.355556,-0.12181 -0.722683,-0.21722 -1.099432,-0.28447 l -0.219764,-1.75812 a 0.62517125,0.62517125 0 0 0 -0.620228,-0.54758 z m 0.468831,5.93854 c 2.093792,0 3.750653,1.65686 3.750653,3.75064 0,2.0938 -1.656861,3.75066 -3.750653,3.75066 -2.093785,0 -3.750652,-1.65686 -3.750652,-3.75066 0,-2.09378 1.656867,-3.75064 3.750652,-3.75064 z" /><path
           id="path4700"
           style="color:#000000;display:inline;fill:#deddda;stroke-width:1.25022;stroke-linecap:round;stroke-linejoin:round"
           d="m 80.684753,125.23781 a 0.62517125,0.62517125 0 0 0 -0.620222,0.54758 l -0.219765,1.75812 c -0.376748,0.0673 -0.743881,0.16266 -1.099437,0.28448 l -1.063112,-1.40406 a 0.62517125,0.62517125 0 0 0 -0.374516,-0.23533 0.62517125,0.62517125 0 0 0 -0.149867,-0.0119 0.62517125,0.62517125 0 0 0 -0.286608,0.083 l -0.811907,0.46883 a 0.62517125,0.62517125 0 0 0 -0.263415,0.78444 l 0.665402,1.57773 c -0.309355,0.24963 -0.599449,0.52251 -0.86594,0.8171 l -1.543237,-0.65106 a 0.62517125,0.62517125 0 0 0 -0.294849,-0.047 0.62517125,0.62517125 0 0 0 -0.147119,0.0306 0.62517125,0.62517125 0 0 0 -0.342468,0.27989 l -0.468831,0.81191 a 0.62517125,0.62517125 0 0 0 0.164213,0.81099 l 1.252352,0.94805 c -0.165058,0.39988 -0.296331,0.81656 -0.390386,1.24686 l -1.500504,0.18741 a 0.62517125,0.62517125 0 0 0 -0.547583,0.62022 v 0.93766 a 0.62517125,0.62517125 0 0 0 0.547583,0.62023 l 1.390925,0.17397 c 0.06179,0.48118 0.169134,0.94835 0.318664,1.39735 l -1.071051,0.81099 a 0.62517125,0.62517125 0 0 0 -0.164213,0.81099 l 0.468831,0.81191 a 0.62517125,0.62517125 0 0 0 0.784436,0.26342 l 1.158349,-0.48867 c 0.31343,0.40702 0.667646,0.78103 1.056089,1.11652 l -0.470663,1.11591 a 0.62517125,0.62517125 0 0 0 0.263415,0.78445 l 0.811907,0.46883 a 0.62517125,0.62517125 0 0 0 0.81069,-0.16421 l 0.694089,-0.91661 c 0.493226,0.19876 1.011377,0.34665 1.54873,0.43648 l 0.139796,1.11867 a 0.62517125,0.62517125 0 0 0 0.620222,0.54757 h 0.937663 a 0.62517125,0.62517125 0 0 0 0.620228,-0.54757 l 0.139796,-1.11867 c 0.537253,-0.0898 1.055274,-0.23778 1.548423,-0.43648 l 0.694089,0.91661 a 0.62517125,0.62517125 0 0 0 0.810997,0.16421 l 0.811908,-0.46883 a 0.62517125,0.62517125 0 0 0 0.263413,-0.78445 l -0.470662,-1.11591 c 0.388443,-0.33549 0.742658,-0.7095 1.056089,-1.11652 l 1.158343,0.48867 a 0.62517125,0.62517125 0 0 0 0.784441,-0.26342 l 0.468832,-0.81191 A 0.62517125,0.62517125 0 0 0 89.3441,138.08587 l -1.071051,-0.81099 c 0.14953,-0.449 0.256876,-0.91617 0.318658,-1.39735 l 1.390931,-0.17397 a 0.62517125,0.62517125 0 0 0 0.547577,-0.62023 v -0.93766 a 0.62517125,0.62517125 0 0 0 -0.547577,-0.62022 l -1.500509,-0.18742 c -0.09405,-0.43029 -0.225323,-0.84697 -0.390387,-1.24685 l 1.252358,-0.94805 a 0.62517125,0.62517125 0 0 0 0.164213,-0.81099 l -0.468832,-0.81191 a 0.62517125,0.62517125 0 0 0 -0.342467,-0.27989 0.62517125,0.62517125 0 0 0 -0.147125,-0.0306 0.62517125,0.62517125 0 0 0 -0.294849,0.047 l -1.543237,0.65106 c -0.266485,-0.29459 -0.556579,-0.56747 -0.865934,-0.8171 l 0.665401,-1.57773 a 0.62517125,0.62517125 0 0 0 -0.263413,-0.78413 l -0.811908,-0.46883 a 0.62517125,0.62517125 0 0 0 -0.286615,-0.0833 0.62517125,0.62517125 0 0 0 -0.149866,0.0119 0.62517125,0.62517125 0 0 0 -0.374516,0.23533 l -1.063112,1.40405 c -0.355556,-0.12181 -0.722683,-0.21722 -1.099432,-0.28447 l -0.219764,-1.75812 a 0.62517125,0.62517125 0 0 0 -0.620228,-0.54758 z m 0.468831,5.93854 c 2.093792,0 3.750653,1.65686 3.750653,3.75064 0,2.0938 -1.656861,3.75066 -3.750653,3.75066 -2.093785,0 -3.750652,-1.65686 -3.750652,-3.75066 0,-2.09378 1.656867,-3.75064 3.750652,-3.75064 z" /></g><path
         d="m 70.240509,134.50568 h 46.672611 c 2.34316,0 4.24297,1.60148 4.24297,3.57668 v 34.87263 c 0,1.9752 -1.89981,3.57668 -4.24297,3.57668 H 70.240509 c -2.343158,0 -4.242972,-1.60148 -4.242972,-3.57668 v -34.87263 c 0,-1.9752 1.899814,-3.57668 4.242972,-3.57668 z m 0,0"
         fill="url(#a)"
         id="path4563"
         style="fill:url(#a);stroke-width:0.486949" /><g
         id="g4696"><path
           id="path4692"
           style="color:#000000;display:inline;fill:#77767b;fill-opacity:1;stroke-width:1.25022;stroke-linecap:round;stroke-linejoin:round"
           d="m 80.684858,125.57187 a 0.62517125,0.62517125 0 0 0 -0.620222,0.54758 l -0.219765,1.75812 c -0.376748,0.0673 -0.743881,0.16266 -1.099437,0.28448 l -1.063112,-1.40406 a 0.62517125,0.62517125 0 0 0 -0.374516,-0.23533 0.62517125,0.62517125 0 0 0 -0.149867,-0.0119 0.62517125,0.62517125 0 0 0 -0.286608,0.083 l -0.811907,0.46883 a 0.62517125,0.62517125 0 0 0 -0.263415,0.78444 l 0.665402,1.57773 c -0.309355,0.24963 -0.599449,0.52251 -0.86594,0.8171 l -1.543237,-0.65106 a 0.62517125,0.62517125 0 0 0 -0.294849,-0.047 0.62517125,0.62517125 0 0 0 -0.147119,0.0306 0.62517125,0.62517125 0 0 0 -0.342468,0.27989 l -0.468831,0.81191 a 0.62517125,0.62517125 0 0 0 0.164213,0.81099 l 1.252352,0.94805 c -0.165058,0.39988 -0.296331,0.81656 -0.390386,1.24686 l -1.500504,0.18741 a 0.62517125,0.62517125 0 0 0 -0.547583,0.62022 v 0.93766 a 0.62517125,0.62517125 0 0 0 0.547583,0.62023 l 1.390925,0.17397 c 0.06179,0.48118 0.169134,0.94835 0.318664,1.39735 l -1.071051,0.81099 a 0.62517125,0.62517125 0 0 0 -0.164213,0.81099 l 0.468831,0.81191 a 0.62517125,0.62517125 0 0 0 0.784436,0.26342 l 1.158349,-0.48867 c 0.31343,0.40702 0.667646,0.78103 1.056089,1.11652 l -0.470663,1.11591 a 0.62517125,0.62517125 0 0 0 0.263415,0.78445 l 0.811907,0.46883 a 0.62517125,0.62517125 0 0 0 0.81069,-0.16421 l 0.694089,-0.91661 c 0.493226,0.19876 1.011377,0.34665 1.54873,0.43648 l 0.139796,1.11867 a 0.62517125,0.62517125 0 0 0 0.620222,0.54757 h 0.937663 a 0.62517125,0.62517125 0 0 0 0.620228,-0.54757 l 0.139796,-1.11867 c 0.537253,-0.0898 1.055274,-0.23778 1.548423,-0.43648 l 0.694089,0.91661 a 0.62517125,0.62517125 0 0 0 0.810997,0.16421 l 0.811908,-0.46883 a 0.62517125,0.62517125 0 0 0 0.263413,-0.78445 l -0.470662,-1.11591 c 0.388443,-0.33549 0.742658,-0.7095 1.056089,-1.11652 l 1.158343,0.48867 a 0.62517125,0.62517125 0 0 0 0.784441,-0.26342 l 0.468832,-0.81191 a 0.62517125,0.62517125 0 0 0 -0.164213,-0.81099 l -1.071051,-0.81099 c 0.14953,-0.449 0.256876,-0.91617 0.318658,-1.39735 l 1.390931,-0.17397 a 0.62517125,0.62517125 0 0 0 0.547577,-0.62023 v -0.93766 a 0.62517125,0.62517125 0 0 0 -0.547577,-0.62022 l -1.500509,-0.18742 c -0.09405,-0.43029 -0.225323,-0.84697 -0.390387,-1.24685 l 1.252358,-0.94805 a 0.62517125,0.62517125 0 0 0 0.164213,-0.81099 l -0.468832,-0.81191 a 0.62517125,0.62517125 0 0 0 -0.342467,-0.27989 0.62517125,0.62517125 0 0 0 -0.147125,-0.0306 0.62517125,0.62517125 0 0 0 -0.294849,0.047 l -1.543237,0.65106 c -0.266485,-0.29459 -0.556579,-0.56747 -0.865934,-0.8171 l 0.665401,-1.57773 a 0.62517125,0.62517125 0 0 0 -0.263413,-0.78413 l -0.811908,-0.46883 a 0.62517125,0.62517125 0 0 0 -0.286615,-0.0833 0.62517125,0.62517125 0 0 0 -0.149866,0.0119 0.62517125,0.62517125 0 0 0 -0.374516,0.23533 l -1.063112,1.40405 c -0.355556,-0.12181 -0.722683,-0.21722 -1.099432,-0.28447 l -0.219764,-1.75812 a 0.62517125,0.62517125 0 0 0 -0.620228,-0.54758 z m 0.468831,5.93854 c 2.093792,0 3.750653,1.65686 3.750653,3.75064 0,2.0938 -1.656861,3.75066 -3.750653,3.75066 -2.093785,0 -3.750652,-1.65686 -3.750652,-3.75066 0,-2.09378 1.656867,-3.75064 3.750652,-3.75064 z" /><path
           id="path4507"
           style="color:#000000;display:inline;fill:#deddda;fill-opacity:1;stroke-width:1.25022;stroke-linecap:round;stroke-linejoin:round"
           d="m 80.684753,125.23781 a 0.62517125,0.62517125 0 0 0 -0.620222,0.54758 l -0.219765,1.75812 c -0.376748,0.0673 -0.743881,0.16266 -1.099437,0.28448 l -1.063112,-1.40406 a 0.62517125,0.62517125 0 0 0 -0.374516,-0.23533 0.62517125,0.62517125 0 0 0 -0.149867,-0.0119 0.62517125,0.62517125 0 0 0 -0.286608,0.083 l -0.811907,0.46883 a 0.62517125,0.62517125 0 0 0 -0.263415,0.78444 l 0.665402,1.57773 c -0.309355,0.24963 -0.599449,0.52251 -0.86594,0.8171 l -1.543237,-0.65106 a 0.62517125,0.62517125 0 0 0 -0.294849,-0.047 0.62517125,0.62517125 0 0 0 -0.147119,0.0306 0.62517125,0.62517125 0 0 0 -0.342468,0.27989 l -0.468831,0.81191 a 0.62517125,0.62517125 0 0 0 0.164213,0.81099 l 1.252352,0.94805 c -0.165058,0.39988 -0.296331,0.81656 -0.390386,1.24686 l -1.500504,0.18741 a 0.62517125,0.62517125 0 0 0 -0.547583,0.62022 v 0.93766 a 0.62517125,0.62517125 0 0 0 0.547583,0.62023 l 1.390925,0.17397 c 0.06179,0.48118 0.169134,0.94835 0.318664,1.39735 l -1.071051,0.81099 a 0.62517125,0.62517125 0 0 0 -0.164213,0.81099 l 0.468831,0.81191 a 0.62517125,0.62517125 0 0 0 0.784436,0.26342 l 1.158349,-0.48867 c 0.31343,0.40702 0.667646,0.78103 1.056089,1.11652 l -0.470663,1.11591 a 0.62517125,0.62517125 0 0 0 0.263415,0.78445 l 0.811907,0.46883 a 0.62517125,0.62517125 0 0 0 0.81069,-0.16421 l 0.694089,-0.91661 c 0.493226,0.19876 1.011377,0.34665 1.54873,0.43648 l 0.139796,1.11867 a 0.62517125,0.62517125 0 0 0 0.620222,0.54757 h 0.937663 a 0.62517125,0.62517125 0 0 0 0.620228,-0.54757 l 0.139796,-1.11867 c 0.537253,-0.0898 1.055274,-0.23778 1.548423,-0.43648 l 0.694089,0.91661 a 0.62517125,0.62517125 0 0 0 0.810997,0.16421 l 0.811908,-0.46883 a 0.62517125,0.62517125 0 0 0 0.263413,-0.78445 l -0.470662,-1.11591 c 0.388443,-0.33549 0.742658,-0.7095 1.056089,-1.11652 l 1.158343,0.48867 a 0.62517125,0.62517125 0 0 0 0.784441,-0.26342 l 0.468832,-0.81191 A 0.62517125,0.62517125 0 0 0 89.3441,138.08587 l -1.071051,-0.81099 c 0.14953,-0.449 0.256876,-0.91617 0.318658,-1.39735 l 1.390931,-0.17397 a 0.62517125,0.62517125 0 0 0 0.547577,-0.62023 v -0.93766 a 0.62517125,0.62517125 0 0 0 -0.547577,-0.62022 l -1.500509,-0.18742 c -0.09405,-0.43029 -0.225323,-0.84697 -0.390387,-1.24685 l 1.252358,-0.94805 a 0.62517125,0.62517125 0 0 0 0.164213,-0.81099 l -0.468832,-0.81191 a 0.62517125,0.62517125 0 0 0 -0.342467,-0.27989 0.62517125,0.62517125 0 0 0 -0.147125,-0.0306 0.62517125,0.62517125 0 0 0 -0.294849,0.047 l -1.543237,0.65106 c -0.266485,-0.29459 -0.556579,-0.56747 -0.865934,-0.8171 l 0.665401,-1.57773 a 0.62517125,0.62517125 0 0 0 -0.263413,-0.78413 l -0.811908,-0.46883 a 0.62517125,0.62517125 0 0 0 -0.286615,-0.0833 0.62517125,0.62517125 0 0 0 -0.149866,0.0119 0.62517125,0.62517125 0 0 0 -0.374516,0.23533 l -1.063112,1.40405 c -0.355556,-0.12181 -0.722683,-0.21722 -1.099432,-0.28447 l -0.219764,-1.75812 a 0.62517125,0.62517125 0 0 0 -0.620228,-0.54758 z m 0.468831,5.93854 c 2.093792,0 3.750653,1.65686 3.750653,3.75064 0,2.0938 -1.656861,3.75066 -3.750653,3.75066 -2.093785,0 -3.750652,-1.65686 -3.750652,-3.75066 0,-2.09378 1.656867,-3.75064 3.750652,-3.75064 z" /></g><path
         d="m 70.240509,130.03484 h 46.672611 c 2.34316,0 4.24297,1.60148 4.24297,3.57668 v 35.76679 c 0,1.9752 -1.89981,3.57668 -4.24297,3.57668 H 70.240509 c -2.343158,0 -4.242972,-1.60148 -4.242972,-3.57668 v -35.76679 c 0,-1.9752 1.899814,-3.57668 4.242972,-3.57668 z m 0,0"
         fill="url(#b)"
         id="path4565"
         style="fill:url(#b);stroke-width:0.486949" /><path
         d="m 70.240509,130.92901 h 46.672611 c 1.75685,0 3.18223,1.20153 3.18223,2.68251 v 35.76679 c 0,1.48097 -1.42538,2.68251 -3.18223,2.68251 H 70.240509 c -1.756868,0 -3.182223,-1.20154 -3.182223,-2.68251 v -35.76679 c 0,-1.48098 1.425355,-2.68251 3.182223,-2.68251 z m 0,0"
         fill="#241f31"
         id="path4567"
         style="fill:#5e5c64;stroke-width:0.486949" /><g
         id="g2764"><circle
           style="fill:#241f31;stroke-width:0.829747;stroke-linecap:round;stroke-linejoin:round;paint-order:stroke fill markers"
           id="circle2665"
           cx="93.576813"
           cy="147.25012"
           r="7.3186059" /><circle
           style="fill:#c0bfbc;stroke-width:0.829747;stroke-linecap:round;stroke-linejoin:round;paint-order:stroke fill markers"
           id="path400"
           cx="93.576813"
           cy="146.72096"
           r="7.3186059" /><path
           d="m 93.576906,141.03522 c -1.180562,0 -2.138357,0.95784 -2.138357,2.13836 0,1.18057 0.957795,2.13836 2.138357,2.13836 1.180536,0 2.138361,-0.95779 2.138361,-2.13836 0,-1.18052 -0.957825,-2.13836 -2.138361,-2.13836 z m -1.069194,4.98952 c -1.776393,0 -3.207525,1.43113 -3.207525,3.20752 v 0.35641 c 0,0.79077 0.634818,1.42558 1.425559,1.42558 h 5.702301 c 0.790741,0 1.425581,-0.63481 1.425581,-1.42558 v -0.35641 c 0,-1.77638 -1.43116,-3.2075 -3.207555,-3.2075 z m 0,0"
           fill="#2e3436"
           id="path1121"
           style="fill:#241f31;fill-opacity:1;stroke-width:0.712788" /><rect
           style="fill:#241f31;stroke-width:1.8305;stroke-linecap:round;stroke-linejoin:round;paint-order:stroke fill markers"
           id="rect1330"
           width="26.564148"
           height="5.6708636"
           x="80.294746"
           y="157.91661"
           rx="1.1456341" /></g><g
         id="g1384"
         transform="matrix(-2.4118801,-0.01459142,-0.01459142,2.4118801,342.35341,-237.75429)"><path
           id="path1187"
           style="fill:#1a5fb4;fill-opacity:1;stroke-width:0.209713"
           d="m 95.529311,157.2276 c 0.700928,0.61497 1.143561,1.51723 1.143561,2.5229 0,1.242 -0.675118,2.32649 -1.678203,2.90667 1.67e-4,0.01 4.44e-4,0.0195 4.44e-4,0.0294 l 2.4e-5,7.96904 c 0,0.92978 -0.747873,1.6778 -1.677654,1.6778 -0.929782,0 -1.677802,-0.74787 -1.677802,-1.67765 l -2.4e-5,-7.96904 c 0,-0.01 1.56e-4,-0.0198 3.24e-4,-0.0296 -1.003025,-0.58019 -1.678044,-1.66468 -1.678044,-2.90662 0,-1.40797 0.867492,-2.61312 2.097018,-3.11098 l 2.6e-5,2.69173 1.258372,0.62923 1.258454,-0.62935 -2.6e-5,-2.69173 c 0.243443,0.0986 0.472911,0.22476 0.684039,0.3749 0.09353,0.0665 0.183412,0.13779 0.269491,0.21331 z m -1.788966,12.75266 c -0.111739,-0.10156 -0.260153,-0.16336 -0.422967,-0.16336 -0.347337,0 -0.629186,0.28174 -0.629186,0.62908 0,0.34734 0.281746,0.62919 0.629082,0.62919 0.347337,0 0.629331,-0.28191 0.629331,-0.62925 0,-0.18453 -0.07962,-0.35055 -0.20626,-0.46566 z" /><path
           id="path1189"
           style="display:inline;fill:#62a0ea;fill-opacity:1;stroke-width:0.209713"
           d="m 95.52929,156.80813 c 0.700903,0.61501 1.143415,1.5174 1.143415,2.52307 0,1.24199 -0.675016,2.32638 -1.678057,2.9065 1.67e-4,0.01 4.44e-4,0.0195 4.44e-4,0.0294 l -1.21e-4,7.96921 c 0,0.92977 -0.747728,1.67763 -1.677509,1.67763 -0.929782,0 -1.677802,-0.74788 -1.677802,-1.67765 l -2.4e-5,-7.96904 c 0,-0.01 3.23e-4,-0.0196 4.9e-4,-0.0295 -1.003068,-0.58011 -1.678044,-1.6646 -1.678044,-2.90662 0,-1.408 0.867287,-2.61329 2.096851,-3.11112 l 4.8e-5,3.1112 1.258372,0.62923 1.258454,-0.62935 -4.7e-5,-3.11121 c 0.243437,0.0986 0.472917,0.22477 0.684039,0.37491 0.09353,0.0665 0.183415,0.13779 0.269491,0.21331 z m -1.788799,12.75281 c -0.11174,-0.10157 -0.26032,-0.16351 -0.423134,-0.16351 -0.347337,0 -0.62902,0.28189 -0.62902,0.62922 0,0.34734 0.281746,0.62919 0.629083,0.62919 0.347336,0 0.629019,-0.28189 0.629019,-0.62923 0,-0.18452 -0.07931,-0.35057 -0.205948,-0.46567 z" /></g></g><g
       id="g718"
       transform="matrix(2.8265061,0,0,2.8265061,-264.96782,-227.52477)"><path
         id="rect11749-5-9"
         style="color:#bebebe;font-style:normal;font-variant:normal;font-weight:normal;font-stretch:normal;font-size:medium;line-height:normal;font-family:'Bitstream Vera Sans';-inkscape-font-specification:'Bitstream Vera Sans';text-indent:0;text-align:start;text-decoration:none;text-decoration-line:none;letter-spacing:normal;word-spacing:normal;text-transform:none;writing-mode:lr-tb;direction:ltr;text-anchor:start;display:inline;overflow:visible;visibility:visible;fill:#241f31;fill-opacity:1;stroke:none;stroke-width:0.345842;marker:none;enable-background:accumulate"
         d="m 146.26175,124.64154 c -0.20846,0 -0.37826,0.17581 -0.37826,0.38366 v 1.65356 c 0,0.20785 0.1698,0.38366 0.37826,0.38366 h 0.86743 v -1e-5 a 0.16348189,0.17290394 0 0 0 1.4e-4,1e-5 0.16348189,0.17290394 0 0 0 0.16349,-0.1729 0.16348189,0.17290394 0 0 0 -0.16349,-0.17291 0.16348189,0.17290394 0 0 0 -1.4e-4,1e-5 v -1e-5 h -0.86743 c -0.0212,0 -0.0324,-0.014 -0.0324,-0.0378 v -1.65355 c 0,-0.0238 0.0112,-0.0378 0.0324,-0.0378 h 2.0102 c 0.0212,0 0.0324,0.014 0.0324,0.0378 v 0.58882 1e-5 a 0.17292071,0.16987138 0 0 0 0.17292,0.16987 0.17292071,0.16987138 0 0 0 0.17292,-0.16987 0.17292071,0.16987138 0 0 0 0,-1e-5 v -0.58884 c 0,-0.20785 -0.1698,-0.38366 -0.37826,-0.38366 z m 1.0051,0.6075 c -0.14266,0 -0.2584,0.11574 -0.2584,0.2584 0,0.14267 0.11574,0.25841 0.2584,0.25841 0.14266,0 0.2584,-0.11574 0.2584,-0.25841 0,-0.14266 -0.11574,-0.2584 -0.2584,-0.2584 z m 0.7892,0.55021 c -0.0467,1e-5 -0.0848,0.0381 -0.0848,0.0848 v 0.0202 c 0,0.0398 -0.0318,0.0765 -0.0696,0.0888 -0.002,6e-4 -0.004,8.9e-4 -0.005,0.002 -0.0378,0.0126 -0.0851,0.002 -0.10866,-0.0305 l -0.0119,-0.0166 c -0.0132,-0.0182 -0.0331,-0.0305 -0.0553,-0.0338 -0.0222,-0.004 -0.0447,0.002 -0.063,0.0149 -0.0381,0.0275 -0.0467,0.0808 -0.0189,0.1186 l 0.0119,0.0169 c 0.0235,0.0321 0.0192,0.0808 -0.004,0.11264 -8.9e-4,0.001 -0.002,0.003 -0.003,0.004 -0.0232,0.0321 -0.0683,0.051 -0.10602,0.0388 l -0.0196,-0.006 c -0.0444,-0.0146 -0.0924,0.01 -0.10668,0.0543 -0.0146,0.0447 0.01,0.0924 0.0543,0.10702 l 0.0189,0.006 c 0.0378,0.0122 0.0626,0.054 0.0636,0.0934 v 0.006 c 0.001,0.0394 -0.0258,0.0815 -0.0633,0.0938 l -0.0192,0.006 c -0.0447,0.0143 -0.0689,0.0623 -0.0543,0.10667 0.0142,0.0447 0.0623,0.0689 0.10668,0.0547 l 0.0196,-0.007 c 0.0378,-0.0122 0.0828,0.007 0.10601,0.0388 8.9e-4,0.002 0.002,0.003 0.003,0.004 0.0235,0.0318 0.0275,0.0808 0.004,0.11265 l -0.0122,0.0172 c -0.0275,0.0378 -0.0192,0.0908 0.0189,0.11828 0.0378,0.0275 0.0908,0.0192 0.11827,-0.0186 l 0.0122,-0.0169 c 0.0232,-0.0318 0.0709,-0.0431 0.10834,-0.0305 0.002,6e-4 0.004,8.9e-4 0.005,0.002 0.0378,0.0119 0.0696,0.049 0.0696,0.0888 v 0.0202 c 0,0.0467 0.0381,0.0848 0.0848,0.0848 0.0471,0 0.0848,-0.0381 0.0848,-0.0848 v -0.0202 c 0,-0.0397 0.0321,-0.0769 0.0699,-0.0888 0.002,-6e-4 0.003,-0.001 0.005,-0.002 0.0374,-0.0126 0.0851,-0.002 0.10833,0.0305 l 0.0123,0.0169 c 0.0275,0.0378 0.0805,0.046 0.11827,0.0186 0.0378,-0.0275 0.0464,-0.0805 0.0189,-0.11828 l -0.0122,-0.0172 c -0.0235,-0.0318 -0.0192,-0.0808 0.004,-0.11265 8.9e-4,-0.001 0.002,-0.003 0.003,-0.004 0.0232,-0.0321 0.0683,-0.051 0.10602,-0.0388 l 0.0199,0.007 c 0.0444,0.0142 0.0924,-0.01 0.10667,-0.0547 0.0146,-0.0444 -0.01,-0.0924 -0.0543,-0.10668 l -0.0196,-0.006 c -0.0378,-0.0122 -0.0623,-0.0543 -0.063,-0.0938 -3e-4,-0.002 -3e-4,-0.004 -3e-4,-0.006 -0.001,-0.0394 0.0255,-0.0812 0.0633,-0.0934 l 0.0195,-0.006 c 0.0444,-0.0146 0.0689,-0.0623 0.0543,-0.10701 -0.0146,-0.0444 -0.0623,-0.0689 -0.10669,-0.0543 l -0.0196,0.006 c -0.0378,0.0122 -0.0828,-0.007 -0.10602,-0.0388 -10e-4,-0.001 -0.002,-0.003 -0.003,-0.004 -0.0235,-0.0318 -0.0275,-0.0805 -0.004,-0.11265 l 0.0122,-0.0169 c 0.0275,-0.0378 0.0192,-0.0911 -0.0189,-0.11861 -0.0182,-0.0132 -0.0408,-0.0186 -0.063,-0.0149 -0.0222,0.003 -0.0424,0.0156 -0.0553,0.0338 l -0.0122,0.0166 c -0.0232,0.0321 -0.0709,0.0431 -0.10834,0.0308 -0.002,-5.9e-4 -0.004,-10e-4 -0.006,-0.002 -0.0374,-0.0119 -0.0696,-0.049 -0.0696,-0.0888 v -0.0202 c 0,-0.0467 -0.0381,-0.0848 -0.0848,-0.0848 h -1e-5 z m -0.91841,0.0527 c -0.21466,0 -0.3876,0.17294 -0.3876,0.38761 v 0.0431 c 0,0.0956 0.0767,0.17227 0.17226,0.17227 h 0.44123 c -0.0646,-0.0524 -0.0951,-0.14179 -0.0683,-0.22442 0.0313,-0.097 0.13043,-0.15484 0.22842,-0.13963 -0.0345,-0.0682 -0.0277,-0.15057 0.0148,-0.21207 -0.044,-0.0173 -0.0921,-0.0268 -0.14241,-0.0268 z m 0.41742,0.24567 6e-4,1.5e-4 c 5e-5,1e-5 9e-5,0 1.4e-4,2e-5 z m 0.501,0.0408 c 0.0739,0 0.14213,0.0232 0.19779,0.063 3e-4,5.9e-4 8.9e-4,0.001 0.002,0.002 8.9e-4,2.9e-4 0.002,5.9e-4 0.003,0.001 0.056,0.0411 0.0984,0.0997 0.12059,0.16764 v 5.9e-4 c 0,0 3e-4,3e-4 3e-4,6e-4 0.0248,0.0722 0.0132,0.14047 0,0.20839 0,0 -3e-4,2.9e-4 -3e-4,5.9e-4 v 3e-4 c -0.0219,0.0679 -0.0643,0.12622 -0.11992,0.16763 -0.001,3e-4 -0.002,8.9e-4 -0.003,0.002 -6e-4,5.9e-4 -0.001,8.9e-4 -0.002,0.002 -0.0557,0.0397 -0.12391,0.0629 -0.19779,0.0629 -0.0726,0 -0.13948,-0.0225 -0.19414,-0.0606 -0.002,-0.001 -0.004,-0.003 -0.005,-0.004 -8.9e-4,-6e-4 -0.002,-0.001 -0.003,-0.002 -0.055,-0.0411 -0.0974,-0.0984 -0.11927,-0.16498 -3e-4,-9e-4 -5.9e-4,-0.002 -8.9e-4,-0.003 -3e-4,-5.9e-4 -5.9e-4,-8.9e-4 -8.9e-4,-0.002 -0.0238,-0.0719 -0.0126,-0.13948 0,-0.20673 3e-4,-3e-4 5.9e-4,-8.9e-4 8.9e-4,-0.001 3e-4,-10e-4 5.9e-4,-0.002 8.9e-4,-0.003 0.0222,-0.0669 0.0646,-0.12423 0.11993,-0.16498 6e-4,-6e-4 0.002,-8.9e-4 0.002,-10e-4 0.002,-0.001 0.004,-0.003 0.005,-0.004 0.0547,-0.0381 0.12158,-0.0606 0.19414,-0.0606 z m 0.51783,0.69712 c -2.9e-4,4.4e-4 -5.9e-4,8.9e-4 -0.001,0.002 h -2e-5 c -2e-5,3e-5 -1e-5,3e-5 -2e-5,5e-5 2e-5,3e-5 0,5e-5 2e-5,7e-5 l 5e-5,-7e-5 z m 0.0148,0.029 c 0.002,0.004 0.004,0.008 0.006,0.0127 0.002,-0.004 0.004,-0.007 0.006,-0.0112 -0.004,-4.4e-4 -0.008,-8.9e-4 -0.0123,-0.001 z" /></g></g></svg>
