<?xml version="1.0" encoding="UTF-8" standalone="no"?>
<!-- Created with Inkscape (http://www.inkscape.org/) -->

<svg
   width="7.9499998mm"
   height="7.9499998mm"
   viewBox="0 0 7.9499998 7.9499998"
   version="1.1"
   id="svg362"
   xmlns="http://www.w3.org/2000/svg"
   xmlns:svg="http://www.w3.org/2000/svg">
  <defs
     id="defs359" />
  <g
     id="layer1">
    <g
       id="g718"
       transform="matrix(2.8265061,0,0,2.8265061,-412.35279,-351.87809)">
      <path
         id="rect11749-5-9"
         style="color:#bebebe;font-style:normal;font-variant:normal;font-weight:normal;font-stretch:normal;font-size:medium;line-height:normal;font-family:'Bitstream Vera Sans';-inkscape-font-specification:'Bitstream Vera Sans';text-indent:0;text-align:start;text-decoration:none;text-decoration-line:none;letter-spacing:normal;word-spacing:normal;text-transform:none;writing-mode:lr-tb;direction:ltr;text-anchor:start;display:inline;overflow:visible;visibility:visible;fill:#241f31;fill-opacity:1;stroke:none;stroke-width:0.345842;marker:none;enable-background:accumulate"
         d="m 146.26175,124.64154 c -0.20846,0 -0.37826,0.17581 -0.37826,0.38366 v 1.65356 c 0,0.20785 0.1698,0.38366 0.37826,0.38366 h 0.86743 v -1e-5 a 0.16348189,0.17290394 0 0 0 1.4e-4,1e-5 0.16348189,0.17290394 0 0 0 0.16349,-0.1729 0.16348189,0.17290394 0 0 0 -0.16349,-0.17291 0.16348189,0.17290394 0 0 0 -1.4e-4,1e-5 v -1e-5 h -0.86743 c -0.0212,0 -0.0324,-0.014 -0.0324,-0.0378 v -1.65355 c 0,-0.0238 0.0112,-0.0378 0.0324,-0.0378 h 2.0102 c 0.0212,0 0.0324,0.014 0.0324,0.0378 v 0.58882 1e-5 a 0.17292071,0.16987138 0 0 0 0.17292,0.16987 0.17292071,0.16987138 0 0 0 0.17292,-0.16987 0.17292071,0.16987138 0 0 0 0,-1e-5 v -0.58884 c 0,-0.20785 -0.1698,-0.38366 -0.37826,-0.38366 z m 1.0051,0.6075 c -0.14266,0 -0.2584,0.11574 -0.2584,0.2584 0,0.14267 0.11574,0.25841 0.2584,0.25841 0.14266,0 0.2584,-0.11574 0.2584,-0.25841 0,-0.14266 -0.11574,-0.2584 -0.2584,-0.2584 z m 0.7892,0.55021 c -0.0467,1e-5 -0.0848,0.0381 -0.0848,0.0848 v 0.0202 c 0,0.0398 -0.0318,0.0765 -0.0696,0.0888 -0.002,6e-4 -0.004,8.9e-4 -0.005,0.002 -0.0378,0.0126 -0.0851,0.002 -0.10866,-0.0305 l -0.0119,-0.0166 c -0.0132,-0.0182 -0.0331,-0.0305 -0.0553,-0.0338 -0.0222,-0.004 -0.0447,0.002 -0.063,0.0149 -0.0381,0.0275 -0.0467,0.0808 -0.0189,0.1186 l 0.0119,0.0169 c 0.0235,0.0321 0.0192,0.0808 -0.004,0.11264 -8.9e-4,0.001 -0.002,0.003 -0.003,0.004 -0.0232,0.0321 -0.0683,0.051 -0.10602,0.0388 l -0.0196,-0.006 c -0.0444,-0.0146 -0.0924,0.01 -0.10668,0.0543 -0.0146,0.0447 0.01,0.0924 0.0543,0.10702 l 0.0189,0.006 c 0.0378,0.0122 0.0626,0.054 0.0636,0.0934 v 0.006 c 0.001,0.0394 -0.0258,0.0815 -0.0633,0.0938 l -0.0192,0.006 c -0.0447,0.0143 -0.0689,0.0623 -0.0543,0.10667 0.0142,0.0447 0.0623,0.0689 0.10668,0.0547 l 0.0196,-0.007 c 0.0378,-0.0122 0.0828,0.007 0.10601,0.0388 8.9e-4,0.002 0.002,0.003 0.003,0.004 0.0235,0.0318 0.0275,0.0808 0.004,0.11265 l -0.0122,0.0172 c -0.0275,0.0378 -0.0192,0.0908 0.0189,0.11828 0.0378,0.0275 0.0908,0.0192 0.11827,-0.0186 l 0.0122,-0.0169 c 0.0232,-0.0318 0.0709,-0.0431 0.10834,-0.0305 0.002,6e-4 0.004,8.9e-4 0.005,0.002 0.0378,0.0119 0.0696,0.049 0.0696,0.0888 v 0.0202 c 0,0.0467 0.0381,0.0848 0.0848,0.0848 0.0471,0 0.0848,-0.0381 0.0848,-0.0848 v -0.0202 c 0,-0.0397 0.0321,-0.0769 0.0699,-0.0888 0.002,-6e-4 0.003,-0.001 0.005,-0.002 0.0374,-0.0126 0.0851,-0.002 0.10833,0.0305 l 0.0123,0.0169 c 0.0275,0.0378 0.0805,0.046 0.11827,0.0186 0.0378,-0.0275 0.0464,-0.0805 0.0189,-0.11828 l -0.0122,-0.0172 c -0.0235,-0.0318 -0.0192,-0.0808 0.004,-0.11265 8.9e-4,-0.001 0.002,-0.003 0.003,-0.004 0.0232,-0.0321 0.0683,-0.051 0.10602,-0.0388 l 0.0199,0.007 c 0.0444,0.0142 0.0924,-0.01 0.10667,-0.0547 0.0146,-0.0444 -0.01,-0.0924 -0.0543,-0.10668 l -0.0196,-0.006 c -0.0378,-0.0122 -0.0623,-0.0543 -0.063,-0.0938 -3e-4,-0.002 -3e-4,-0.004 -3e-4,-0.006 -0.001,-0.0394 0.0255,-0.0812 0.0633,-0.0934 l 0.0195,-0.006 c 0.0444,-0.0146 0.0689,-0.0623 0.0543,-0.10701 -0.0146,-0.0444 -0.0623,-0.0689 -0.10669,-0.0543 l -0.0196,0.006 c -0.0378,0.0122 -0.0828,-0.007 -0.10602,-0.0388 -10e-4,-0.001 -0.002,-0.003 -0.003,-0.004 -0.0235,-0.0318 -0.0275,-0.0805 -0.004,-0.11265 l 0.0122,-0.0169 c 0.0275,-0.0378 0.0192,-0.0911 -0.0189,-0.11861 -0.0182,-0.0132 -0.0408,-0.0186 -0.063,-0.0149 -0.0222,0.003 -0.0424,0.0156 -0.0553,0.0338 l -0.0122,0.0166 c -0.0232,0.0321 -0.0709,0.0431 -0.10834,0.0308 -0.002,-5.9e-4 -0.004,-10e-4 -0.006,-0.002 -0.0374,-0.0119 -0.0696,-0.049 -0.0696,-0.0888 v -0.0202 c 0,-0.0467 -0.0381,-0.0848 -0.0848,-0.0848 h -1e-5 z m -0.91841,0.0527 c -0.21466,0 -0.3876,0.17294 -0.3876,0.38761 v 0.0431 c 0,0.0956 0.0767,0.17227 0.17226,0.17227 h 0.44123 c -0.0646,-0.0524 -0.0951,-0.14179 -0.0683,-0.22442 0.0313,-0.097 0.13043,-0.15484 0.22842,-0.13963 -0.0345,-0.0682 -0.0277,-0.15057 0.0148,-0.21207 -0.044,-0.0173 -0.0921,-0.0268 -0.14241,-0.0268 z m 0.41742,0.24567 6e-4,1.5e-4 c 5e-5,1e-5 9e-5,0 1.4e-4,2e-5 z m 0.501,0.0408 c 0.0739,0 0.14213,0.0232 0.19779,0.063 3e-4,5.9e-4 8.9e-4,0.001 0.002,0.002 8.9e-4,2.9e-4 0.002,5.9e-4 0.003,0.001 0.056,0.0411 0.0984,0.0997 0.12059,0.16764 v 5.9e-4 c 0,0 3e-4,3e-4 3e-4,6e-4 0.0248,0.0722 0.0132,0.14047 0,0.20839 0,0 -3e-4,2.9e-4 -3e-4,5.9e-4 v 3e-4 c -0.0219,0.0679 -0.0643,0.12622 -0.11992,0.16763 -0.001,3e-4 -0.002,8.9e-4 -0.003,0.002 -6e-4,5.9e-4 -0.001,8.9e-4 -0.002,0.002 -0.0557,0.0397 -0.12391,0.0629 -0.19779,0.0629 -0.0726,0 -0.13948,-0.0225 -0.19414,-0.0606 -0.002,-0.001 -0.004,-0.003 -0.005,-0.004 -8.9e-4,-6e-4 -0.002,-0.001 -0.003,-0.002 -0.055,-0.0411 -0.0974,-0.0984 -0.11927,-0.16498 -3e-4,-9e-4 -5.9e-4,-0.002 -8.9e-4,-0.003 -3e-4,-5.9e-4 -5.9e-4,-8.9e-4 -8.9e-4,-0.002 -0.0238,-0.0719 -0.0126,-0.13948 0,-0.20673 3e-4,-3e-4 5.9e-4,-8.9e-4 8.9e-4,-0.001 3e-4,-10e-4 5.9e-4,-0.002 8.9e-4,-0.003 0.0222,-0.0669 0.0646,-0.12423 0.11993,-0.16498 6e-4,-6e-4 0.002,-8.9e-4 0.002,-10e-4 0.002,-0.001 0.004,-0.003 0.005,-0.004 0.0547,-0.0381 0.12158,-0.0606 0.19414,-0.0606 z m 0.51783,0.69712 c -2.9e-4,4.4e-4 -5.9e-4,8.9e-4 -0.001,0.002 h -2e-5 c -2e-5,3e-5 -1e-5,3e-5 -2e-5,5e-5 2e-5,3e-5 0,5e-5 2e-5,7e-5 l 5e-5,-7e-5 z m 0.0148,0.029 c 0.002,0.004 0.004,0.008 0.006,0.0127 0.002,-0.004 0.004,-0.007 0.006,-0.0112 -0.004,-4.4e-4 -0.008,-8.9e-4 -0.0123,-0.001 z" />
    </g>
  </g>
</svg>
