<?xml version="1.0" encoding="UTF-8"?>
<svg height="128px" viewBox="0 0 128 128" width="128px" xmlns="http://www.w3.org/2000/svg" xmlns:xlink="http://www.w3.org/1999/xlink">
    <linearGradient id="a" gradientUnits="userSpaceOnUse" x1="8.0997775" x2="120.0997775" y1="115.742936" y2="115.742936">
        <stop offset="0" stop-color="#3d3846"/>
        <stop offset="0.0357143" stop-color="#9a9996"/>
        <stop offset="0.0713653" stop-color="#5e5c64"/>
        <stop offset="0.928571" stop-color="#5e5c64"/>
        <stop offset="0.964286" stop-color="#9a9996"/>
        <stop offset="1" stop-color="#3d3846"/>
    </linearGradient>
    <linearGradient id="b" gradientUnits="userSpaceOnUse" x1="-146.215958" x2="-146.215958" y1="145.143188" y2="114.643188">
        <stop offset="0" stop-color="#9a9996"/>
        <stop offset="1" stop-color="#77767b"/>
    </linearGradient>
    <radialGradient id="c" cx="-243.066589" cy="-74.599976" gradientTransform="matrix(0 -1 -1 0 -210.215958 -117.356812)" gradientUnits="userSpaceOnUse" r="28.266657">
        <stop offset="0" stop-color="#d5d3cf"/>
        <stop offset="1" stop-color="#949390"/>
    </radialGradient>
    <linearGradient id="d" gradientTransform="matrix(0 1 -1 0 -210.215954 -117.3568)" gradientUnits="userSpaceOnUse" x1="203.999985" x2="268" y1="-64" y2="-64">
        <stop offset="0" stop-color="#d5d3cf"/>
        <stop offset="1" stop-color="#f6f5f4"/>
    </linearGradient>
    <path d="m 16.101562 39.742188 h 96 c 4.417969 0 8 3.582031 8 8 v 60 c 0 4.417968 -3.582031 8 -8 8 h -96 c -4.421874 0 -8 -3.582032 -8 -8 v -60 c 0 -4.417969 3.578126 -8 8 -8 z m 0 0" fill="url(#a)"/>
    <path d="m 16.101562 27.742188 h 96 c 4.417969 0 8 3.582031 8 8 v 66.929687 c 0 4.417969 -3.582031 8 -8 8 h -96 c -4.421874 0 -8 -3.582031 -8 -8 v -66.929687 c 0 -4.417969 3.578126 -8 8 -8 z m 0 0" fill="#77767b"/>
    <path d="m 16.957031 29.988281 h 94.609375 c 3.636719 0 6.585938 2.945313 6.585938 6.582031 v 65.355469 c 0 3.636719 -2.949219 6.585938 -6.585938 6.585938 h -94.609375 c -3.636719 0 -6.585937 -2.949219 -6.585937 -6.585938 v -65.355469 c 0 -3.636718 2.949218 -6.582031 6.585937 -6.582031 z m 0 0" fill="#5e5c64"/>
    <path d="m 83.679688 56.054688 c 0 11.800781 -9.566407 21.367187 -21.367188 21.367187 c -11.796875 0 -21.363281 -9.566406 -21.363281 -21.367187 c 0 -11.796876 9.566406 -21.363282 21.363281 -21.363282 c 11.800781 0 21.367188 9.566406 21.367188 21.363282 z m 0 0" fill="#3584e4"/>
    <path d="m 68.570312 44.625 c 0 3.570312 -2.890624 6.460938 -6.457031 6.460938 c -3.570312 0 -6.460937 -2.890626 -6.460937 -6.460938 c 0 -3.566406 2.890625 -6.457031 6.460937 -6.457031 c 3.566407 0 6.457031 2.890625 6.457031 6.457031 z m 0 0" fill="#f6f5f4"/>
    <path d="m 60.847656 53.179688 h 3.347656 c 6.160157 0 11.148438 3.097656 11.148438 6.917968 c 0 3.820313 -4.988281 6.917969 -11.148438 6.917969 h -3.347656 c -6.15625 0 -11.148437 -3.097656 -11.148437 -6.917969 c 0 -3.820312 4.992187 -6.917968 11.148437 -6.917968 z m 0 0" fill="#f6f5f4"/>
    <path d="m 56.492188 56.042969 h 12.210937 c 3.808594 0 6.894531 2.578125 6.894531 5.761719 v 2.539062 c 0 3.179688 -3.085937 5.761719 -6.894531 5.761719 h -12.210937 c -3.808594 0 -6.894532 -2.582031 -6.894532 -5.761719 v -2.539062 c 0 -3.183594 3.085938 -5.761719 6.894532 -5.761719 z m 0 0" fill="#f6f5f4"/>
    <path d="m 44.613281 83.558594 h 36.371094 c 1.789063 0 3.238281 1.449218 3.238281 3.238281 v 5.09375 c 0 1.789063 -1.449218 3.238281 -3.238281 3.238281 h -36.371094 c -1.789062 0 -3.238281 -1.449218 -3.238281 -3.238281 v -5.09375 c 0 -1.789063 1.449219 -3.238281 3.238281 -3.238281 z m 0 0" fill="#241f31"/>
    <g stroke-linecap="round" stroke-linejoin="round">
        <path d="m 109.05468218866 113.80077239884 h -1.90624967649 l -0.63281212049 -5.08203009262 h 3.17578041614 z m 0 0" fill="#9a9996" stroke="#9a9996" stroke-width="2.541432"/>
        <path d="m 107.14843251217 78.22265588716 h 1.90624967649 l 0.63671861916 5.08203009262 h -3.17578041614 z m 0 0" fill="#9a9996" stroke="#9a9996" stroke-width="2.541432"/>
        <path d="m 667.00153 291.998605 h -6.000553 l -2.004283 -15.997375 h 10.009119 z m 0 0" fill="#9a9996" stroke="#9a9996" stroke-width="8" transform="matrix(0 0.317679 -0.317679 0 183.074347 -114.927587)"/>
        <path d="m 661.000977 180.004685 h 6.000553 l 2.004283 15.997375 h -10.009119 z m 0 0" fill="#9a9996" stroke="#9a9996" stroke-width="8" transform="matrix(0 0.317679 -0.317679 0 183.074347 -114.927587)"/>
        <path d="m 666.999866 292.000821 l -5.993946 -0.003814 l -2.006659 -15.993177 l 9.992911 -0.004843 z m 0 0" fill="#9a9996" stroke="#9a9996" stroke-width="8" transform="matrix(-0.15884 0.275118 -0.275118 -0.15884 278.499445 -49.181063)"/>
        <path d="m 661.004426 180.000525 l 5.993946 0.003814 l 2.006659 15.993178 l -10.009707 0.000341 z m 0 0" fill="#9a9996" stroke="#9a9996" stroke-width="8" transform="matrix(-0.15884 0.275118 -0.275118 -0.15884 278.499445 -49.181063)"/>
        <path d="m 666.998427 291.996208 l -5.993946 0.003813 l -2.009101 -15.997333 l 10.009708 0.000343 z m 0 0" fill="#9a9996" stroke="#9a9996" stroke-width="8" transform="matrix(-0.275118 0.15884 -0.15884 -0.275118 328.266723 55.469705)"/>
        <path d="m 660.995341 179.997391 l 6.004595 0.002335 l 2.002952 16.007982 l -10.003559 -0.010992 z m 0 0" fill="#9a9996" stroke="#9a9996" stroke-width="8" transform="matrix(-0.275118 0.15884 -0.15884 -0.275118 328.266723 55.469705)"/>
        <path d="m 666.997135 292.001535 l -5.993946 -0.003813 l -2.00666 -15.993178 l 10.003559 -0.010991 z m 0 0" fill="#9a9996" stroke="#9a9996" stroke-width="8" transform="matrix(0.275118 0.15884 -0.15884 0.275118 -37.090342 -74.385936)"/>
        <path d="m 661.001687 180.00124 l 5.993946 0.003813 l 2.00666 15.993177 l -10.009707 0.000342 z m 0 0" fill="#9a9996" stroke="#9a9996" stroke-width="8" transform="matrix(0.275118 0.15884 -0.15884 0.275118 -37.090342 -74.385936)"/>
        <path d="m 666.996577 291.998379 l -5.993946 0.003813 l -2.002953 -16.007982 l 10.003559 0.010991 z m 0 0" fill="#9a9996" stroke="#9a9996" stroke-width="8" transform="matrix(0.15884 0.275118 -0.275118 0.15884 67.560455 -124.153279)"/>
        <path d="m 661.004133 180.00571 l 5.993946 -0.003813 l 1.998452 15.991185 l -9.999058 0.005806 z m 0 0" fill="#9a9996" stroke="#9a9996" stroke-width="8" transform="matrix(0.15884 0.275118 -0.275118 0.15884 67.560455 -124.153279)"/>
        <path d="m 109.05468218866 113.16795996067 h -1.90624967649 l -0.63281212049 -5.08593627361 h 3.17578041614 z m 0 0" fill="#f6f5f4" stroke="#f6f5f4" stroke-width="2.541432"/>
        <path d="m 107.14843251217 77.585937268 h 1.90624967649 l 0.63671861916 5.08203009263 h -3.17578041614 z m 0 0" fill="#f6f5f4" stroke="#f6f5f4" stroke-width="2.541432"/>
        <path d="m 666.997247 291.998605 h -6.000553 l -1.991986 -15.997375 h 9.996822 z m 0 0" fill="#f6f5f4" stroke="#f6f5f4" stroke-width="8" transform="matrix(0 0.317679 -0.317679 0 183.074347 -115.562945)"/>
        <path d="m 660.996694 180.004685 h 6.000553 l 2.004283 15.997375 h -9.996822 z m 0 0" fill="#f6f5f4" stroke="#f6f5f4" stroke-width="8" transform="matrix(0 0.317679 -0.317679 0 183.074347 -115.562945)"/>
        <path d="m 666.996129 292.002946 l -5.993946 -0.003813 l -2.006659 -15.993178 l 10.003559 -0.01099 z m 0 0" fill="#f6f5f4" stroke="#f6f5f4" stroke-width="8" transform="matrix(-0.15884 0.275118 -0.275118 -0.15884 278.499436 -49.816416)"/>
        <path d="m 661.000689 180.002651 l 6.004595 -0.002335 l 1.99601 15.999326 l -10.009708 0.000341 z m 0 0" fill="#f6f5f4" stroke="#f6f5f4" stroke-width="8" transform="matrix(-0.15884 0.275118 -0.275118 -0.15884 278.499436 -49.816416)"/>
        <path d="m 666.996276 291.999915 l -5.993946 0.003812 l -2.002952 -16.007981 l 10.003559 0.010991 z m 0 0" fill="#f6f5f4" stroke="#f6f5f4" stroke-width="8" transform="matrix(-0.275118 0.15884 -0.15884 -0.275118 328.26672 54.834347)"/>
        <path d="m 660.99319 180.001097 l 6.004595 0.002336 l 2.0091 15.997333 l -10.009707 -0.000343 z m 0 0" fill="#f6f5f4" stroke="#f6f5f4" stroke-width="8" transform="matrix(-0.275118 0.15884 -0.15884 -0.275118 328.26672 54.834347)"/>
        <path d="m 666.994994 291.997829 l -5.993946 -0.003813 l -2.00666 -15.993178 l 10.009708 -0.000342 z m 0 0" fill="#f6f5f4" stroke="#f6f5f4" stroke-width="8" transform="matrix(0.275118 0.15884 -0.15884 0.275118 -37.090342 -75.021295)"/>
        <path d="m 660.999547 179.997534 l 5.993946 0.003813 l 2.00666 15.993177 l -10.00356 0.010991 z m 0 0" fill="#f6f5f4" stroke="#f6f5f4" stroke-width="8" transform="matrix(0.275118 0.15884 -0.15884 0.275118 -37.090342 -75.021295)"/>
        <path d="m 667.003519 292.002389 l -6.004595 -0.002335 l -2.002953 -16.007981 l 10.003559 0.010991 z m 0 0" fill="#f6f5f4" stroke="#f6f5f4" stroke-width="8" transform="matrix(0.15884 0.275118 -0.275118 0.15884 67.560455 -124.788639)"/>
        <path d="m 661.000426 180.003573 l 5.993946 -0.003814 l 2.009101 15.997333 l -10.009707 -0.000342 z m 0 0" fill="#f6f5f4" stroke="#f6f5f4" stroke-width="8" transform="matrix(0.15884 0.275118 -0.275118 0.15884 67.560455 -124.788639)"/>
    </g>
    <path d="m -110.214379 120.644354 c 0 19.882979 -16.120337 36.003316 -36.003315 36.003316 s -36.003315 -16.120337 -36.003315 -36.003316 c 0 -19.882978 16.120337 -36.003315 36.003315 -36.003315 s 36.003315 16.120337 36.003315 36.003315 z m 0 0" fill="none" stroke="url(#b)" stroke-width="24" transform="matrix(0.317679 0 0 0.317679 154.551865 57.685532)"/>
    <path d="m 120.17578991282 95.37499111521 c 0 6.6679672102 -5.40624851484 12.07421604272 -12.07421572504 12.07421604272 s -12.07030954406 -5.40624883252 -12.07030954406 -12.07421604272 c 0 -6.66796689252 5.40234233386 -12.07030954406 12.07030954406 -12.07030954406 s 12.07421572504 5.40234265153 12.07421572504 12.07030954406 z m 0 0" fill="none" stroke="#f6f5f4" stroke-width="6.35358"/>
    <path d="m -146.217694 92.14173 c -14.632495 0 -26.498342 11.865846 -26.498342 26.498341 c 0 14.644791 11.865847 26.498342 26.498342 26.498342 s 26.498342 -11.853551 26.498342 -26.498342 c 0 -14.632495 -11.865847 -26.498341 -26.498342 -26.498341 z m 0 0" fill="none" stroke="url(#c)" stroke-linecap="square" stroke-linejoin="round" stroke-width="5" transform="matrix(0.317679 0 0 0.317679 154.551865 57.685532)"/>
    <path d="m -146.217694 150.647117 c -17.66966 0 -31.994749 -14.337386 -31.994749 -32.007046 s 14.325089 -31.994749 31.994749 -31.994749 s 32.007046 14.325089 32.007046 31.994749 s -14.337386 32.007046 -32.007046 32.007046 z m 0 0" fill="none" stroke="url(#d)" stroke-linecap="square" stroke-linejoin="round" stroke-width="8" transform="matrix(0.317679 0 0 0.317679 154.551865 57.685532)"/>
    <path d="m 45.277344 85.195312 h 0.113281 c 0.425781 0 0.773437 0.3125 0.773437 0.699219 v 6.527344 c 0 0.386719 -0.347656 0.699219 -0.773437 0.699219 h -0.113281 c -0.429688 0 -0.777344 -0.3125 -0.777344 -0.699219 v -6.527344 c 0 -0.386719 0.347656 -0.699219 0.777344 -0.699219 z m 0 0" fill="#fffff8"/>
</svg>
