<?xml version="1.0" encoding="UTF-8"?>
<svg height="16px" viewBox="0 0 16 16" width="16px" xmlns="http://www.w3.org/2000/svg">
    <path d="m 2.144531 0.871094 c -1.179687 0 -2.144531 0.996094 -2.144531 2.175781 v 9.378906 c 0 1.175781 0.964844 2.175781 2.144531 2.175781 h 4.921875 c 0.511719 0 0.925782 -0.441406 0.925782 -0.980468 c 0 -0.542969 -0.414063 -0.980469 -0.925782 -0.980469 h -4.921875 c -0.121093 0 -0.183593 -0.082031 -0.183593 -0.214844 v -9.378906 c 0 -0.132813 0.0625 -0.214844 0.183593 -0.214844 h 11.402344 c 0.117187 0 0.183594 0.082031 0.183594 0.214844 v 3.339844 c 0 0.53125 0.4375 0.964843 0.980469 0.964843 c 0.539062 0 0.980468 -0.433593 0.980468 -0.964843 v -3.339844 c 0 -1.179687 -0.964844 -2.175781 -2.144531 -2.175781 z m 5.699219 3.445312 c -0.808594 0 -1.464844 0.65625 -1.464844 1.464844 s 0.65625 1.464844 1.464844 1.464844 s 1.46875 -0.65625 1.46875 -1.464844 s -0.660156 -1.464844 -1.46875 -1.464844 z m 4.476562 3.121094 c -0.265624 0 -0.480468 0.214844 -0.480468 0.480469 v 0.113281 c 0 0.226562 -0.179688 0.433594 -0.394532 0.503906 c -0.011718 0.003906 -0.023437 0.003906 -0.027343 0.011719 c -0.214844 0.070313 -0.484375 0.011719 -0.617188 -0.171875 l -0.066406 -0.09375 c -0.074219 -0.105469 -0.1875 -0.175781 -0.316406 -0.191406 c -0.125 -0.023438 -0.25 0.011718 -0.355469 0.082031 c -0.214844 0.15625 -0.265625 0.460937 -0.105469 0.671875 l 0.066407 0.097656 c 0.132812 0.183594 0.109374 0.457032 -0.023438 0.640625 c -0.003906 0.003907 -0.011719 0.015625 -0.015625 0.019531 c -0.132813 0.183594 -0.390625 0.289063 -0.601563 0.222657 l -0.113281 -0.035157 c -0.25 -0.082031 -0.523437 0.054688 -0.605469 0.308594 c -0.082031 0.253906 0.058594 0.523438 0.308594 0.605469 l 0.109375 0.035156 c 0.214844 0.070313 0.355469 0.304688 0.359375 0.527344 v 0.035156 c 0.003906 0.222657 -0.144531 0.460938 -0.359375 0.53125 l -0.109375 0.035157 c -0.253906 0.082031 -0.390625 0.351562 -0.308594 0.605468 c 0.082032 0.253906 0.355469 0.390625 0.605469 0.308594 l 0.113281 -0.039062 c 0.214844 -0.070313 0.46875 0.039062 0.601563 0.21875 c 0.003906 0.011718 0.011719 0.019531 0.015625 0.023437 c 0.132812 0.179687 0.15625 0.460937 0.023438 0.640625 l -0.070313 0.097656 c -0.15625 0.214844 -0.109375 0.515625 0.109375 0.671875 c 0.210938 0.152344 0.511719 0.105469 0.667969 -0.105469 l 0.070312 -0.097656 c 0.132813 -0.179687 0.402344 -0.246094 0.613281 -0.171875 c 0.011719 0.003907 0.023438 0.003907 0.027344 0.011719 c 0.214844 0.066406 0.398438 0.277344 0.398438 0.503906 v 0.113282 c 0 0.265624 0.214844 0.480468 0.480468 0.480468 c 0.265626 0 0.480469 -0.214844 0.480469 -0.480468 v -0.113282 c 0 -0.226562 0.179688 -0.4375 0.394531 -0.503906 c 0.011719 -0.003906 0.019532 -0.007812 0.027344 -0.011719 c 0.214844 -0.074219 0.484375 -0.011719 0.617188 0.171875 l 0.070312 0.097656 c 0.15625 0.210938 0.453125 0.257813 0.667969 0.105469 c 0.214844 -0.15625 0.265625 -0.457031 0.109375 -0.671875 l -0.070312 -0.097656 c -0.132813 -0.179688 -0.109376 -0.457031 0.023437 -0.640625 c 0.003906 -0.003906 0.011719 -0.015625 0.015625 -0.023437 c 0.132812 -0.179688 0.386719 -0.289063 0.601562 -0.21875 l 0.113282 0.039062 c 0.25 0.082031 0.523437 -0.054688 0.605468 -0.308594 c 0.082032 -0.253906 -0.058593 -0.523437 -0.308593 -0.605468 l -0.109375 -0.035157 c -0.214844 -0.066406 -0.355469 -0.308593 -0.359375 -0.53125 c 0 -0.011719 0 -0.023437 0 -0.035156 c -0.007813 -0.222656 0.144531 -0.457031 0.359375 -0.527344 l 0.109375 -0.035156 c 0.25 -0.082031 0.390625 -0.351563 0.308593 -0.605469 c -0.082031 -0.253906 -0.355468 -0.390625 -0.605468 -0.308594 l -0.113282 0.035157 c -0.210937 0.066406 -0.46875 -0.042969 -0.601562 -0.222657 c -0.003906 -0.003906 -0.007812 -0.015624 -0.015625 -0.019531 c -0.132813 -0.183593 -0.15625 -0.457031 -0.023437 -0.640625 l 0.070312 -0.097656 c 0.15625 -0.210938 0.109375 -0.515625 -0.105469 -0.671875 c -0.105469 -0.074219 -0.234375 -0.105469 -0.359375 -0.082031 c -0.125 0.015625 -0.238281 0.085937 -0.3125 0.191406 l -0.070312 0.09375 c -0.132813 0.179688 -0.402344 0.242188 -0.613282 0.171875 c -0.011718 0 -0.023437 -0.003906 -0.035156 -0.007813 c -0.210937 -0.070312 -0.394531 -0.28125 -0.394531 -0.503906 v -0.117187 c 0 -0.261719 -0.214844 -0.480469 -0.480469 -0.480469 z m -5.207031 0.296875 c -1.21875 0 -2.199219 0.980469 -2.199219 2.199219 v 0.246094 c 0 0.539062 0.433594 0.976562 0.976563 0.976562 h 2.503906 c -0.367187 -0.296875 -0.539062 -0.804688 -0.386719 -1.273438 c 0.175782 -0.550781 0.738282 -0.878906 1.292969 -0.792968 c -0.195312 -0.386719 -0.15625 -0.851563 0.085938 -1.203125 c -0.25 -0.097657 -0.523438 -0.152344 -0.808594 -0.152344 z m 2.367188 1.394531 h 0.003906 z m 2.839843 0.230469 c 0.417969 0 0.808594 0.132813 1.121094 0.359375 c 0.003906 0.003906 0.007813 0.003906 0.011719 0.011719 c 0.007813 0 0.011719 0 0.019531 0.003906 c 0.316406 0.234375 0.554688 0.566406 0.683594 0.949219 v 0.003906 v 0.003906 c 0.140625 0.410156 0.074219 0.796875 0 1.183594 v 0.003906 c -0.125 0.386719 -0.367188 0.714844 -0.679688 0.949219 c -0.007812 0.003906 -0.011718 0.007813 -0.019531 0.011719 c -0.003906 0.003906 -0.003906 0.007812 -0.011719 0.011718 c -0.316406 0.226563 -0.703124 0.355469 -1.121093 0.355469 c -0.410157 0 -0.789063 -0.125 -1.101563 -0.34375 c -0.011718 -0.003906 -0.023437 -0.015625 -0.027344 -0.019531 c -0.003906 -0.003906 -0.011718 -0.007812 -0.015624 -0.011719 c -0.3125 -0.234375 -0.554688 -0.558593 -0.675782 -0.9375 c -0.003906 -0.003906 -0.003906 -0.011719 -0.007812 -0.015625 c 0 -0.003906 -0.003906 -0.003906 -0.003906 -0.011718 c -0.136719 -0.40625 -0.070313 -0.789063 0 -1.171876 c 0 -0.003906 0.003906 -0.003906 0.003906 -0.007812 c 0.003906 -0.003906 0.003906 -0.007812 0.007812 -0.015625 c 0.125 -0.378906 0.363282 -0.703125 0.679688 -0.933594 c 0.003906 -0.003906 0.011718 -0.007812 0.011718 -0.007812 c 0.007813 -0.003907 0.019532 -0.015625 0.027344 -0.023438 c 0.308594 -0.214843 0.6875 -0.34375 1.101563 -0.34375 z m 2.9375 3.953125 c 0 0.003906 -0.003906 0.007812 -0.003906 0.011719 h -0.003906 h 0.003906 z m 0.082032 0.164062 c 0.011718 0.023438 0.023437 0.046876 0.035156 0.074219 c 0.011719 -0.023437 0.023438 -0.039062 0.035156 -0.0625 c -0.023437 -0.003906 -0.046875 -0.007812 -0.070312 -0.007812 z m 0 0" fill="#241f31"/>
</svg>
