<?xml version="1.0" encoding="UTF-8"?>
<svg height="128px" viewBox="0 0 128 128" width="128px" xmlns="http://www.w3.org/2000/svg" xmlns:xlink="http://www.w3.org/1999/xlink">
    <linearGradient id="a" gradientTransform="matrix(1.068485 0 0 0.900698 -4.383027 11.023804)" gradientUnits="userSpaceOnUse" x1="11.999989" x2="115.999992" y1="64" y2="64">
        <stop offset="0" stop-color="#3d3846"/>
        <stop offset="0.0284784" stop-color="#77767b"/>
        <stop offset="0.1" stop-color="#5e5c64"/>
        <stop offset="0.899999" stop-color="#504e56"/>
        <stop offset="0.968553" stop-color="#77767b"/>
        <stop offset="1" stop-color="#3d3846"/>
    </linearGradient>
    <linearGradient id="b" gradientTransform="matrix(1.068485 0 0 0.900698 -4.383027 11.023804)" gradientUnits="userSpaceOnUse" x1="12" x2="112.041023" y1="60" y2="80.988281">
        <stop offset="0" stop-color="#77767b"/>
        <stop offset="0.384443" stop-color="#9a9996"/>
        <stop offset="0.720567" stop-color="#77767b"/>
        <stop offset="1" stop-color="#68666f"/>
    </linearGradient>
    <clipPath id="c">
        <rect height="128" width="128"/>
    </clipPath>
    <clipPath id="d">
        <rect height="128" width="128"/>
    </clipPath>
    <filter id="e" height="100%" width="100%" x="0%" y="0%">
        <feColorMatrix in="SourceGraphic" type="matrix" values="0 0 0 0 1 0 0 0 0 1 0 0 0 0 1 0 0 0 1 0"/>
    </filter>
    <mask id="f">
        <g clip-path="url(#d)" filter="url(#e)">
            <g clip-path="url(#c)">
                <path d="m 73.847656 7.664062 c -0.636718 0 -1.171875 0.472657 -1.25 1.101563 l -0.441406 3.542969 c -0.761719 0.136718 -1.5 0.328125 -2.214844 0.574218 l -2.140625 -2.828124 c -0.1875 -0.246094 -0.453125 -0.414063 -0.753906 -0.476563 c -0.101563 -0.019531 -0.203125 -0.027344 -0.304687 -0.023437 c -0.203126 0.007812 -0.402344 0.066406 -0.578126 0.167968 l -1.632812 0.945313 c -0.550781 0.316406 -0.78125 0.992187 -0.53125 1.578125 l 1.339844 3.179687 c -0.625 0.503907 -1.210938 1.050781 -1.746094 1.644531 l -3.109375 -1.308593 c -0.1875 -0.082031 -0.390625 -0.113281 -0.59375 -0.097657 c -0.101563 0.011719 -0.199219 0.03125 -0.292969 0.0625 c -0.292968 0.097657 -0.539062 0.300782 -0.691406 0.566407 l -0.945312 1.632812 c -0.316407 0.550781 -0.175782 1.253907 0.332031 1.636719 l 2.523437 1.910156 c -0.335937 0.804688 -0.597656 1.644532 -0.789062 2.511719 l -3.019532 0.375 c -0.632812 0.078125 -1.105468 0.617187 -1.105468 1.25 v 1.890625 c 0 0.632812 0.472656 1.171875 1.105468 1.25 l 2.800782 0.347656 c 0.121094 0.96875 0.339844 1.910156 0.640625 2.816406 l -2.15625 1.632813 c -0.507813 0.382813 -0.648438 1.082031 -0.332031 1.632813 l 0.945312 1.636718 c 0.316406 0.550782 0.992188 0.777344 1.578125 0.53125 l 2.335937 -0.984375 c 0.628907 0.820313 1.34375 1.574219 2.128907 2.25 l -0.949219 2.246094 c -0.25 0.585937 -0.019531 1.261719 0.53125 1.582031 l 1.632812 0.945313 c 0.550782 0.316406 1.25 0.175781 1.636719 -0.332031 l 1.394531 -1.847657 c 0.992188 0.402344 2.039063 0.699219 3.121094 0.878907 l 0.28125 2.253906 c 0.078125 0.632812 0.613282 1.105468 1.25 1.105468 h 1.890625 c 0.632813 0 1.167969 -0.472656 1.25 -1.105468 l 0.28125 -2.253906 c 1.082031 -0.179688 2.125 -0.476563 3.117188 -0.878907 l 1.398437 1.847657 c 0.382813 0.507812 1.085938 0.648437 1.636719 0.332031 l 1.632813 -0.945313 c 0.550781 -0.320312 0.777343 -0.996094 0.53125 -1.582031 l -0.949219 -2.246094 c 0.78125 -0.675781 1.496093 -1.429687 2.128906 -2.25 l 2.332031 0.984375 c 0.585938 0.25 1.265625 0.019532 1.582032 -0.53125 l 0.945312 -1.636718 c 0.316406 -0.550782 0.171875 -1.25 -0.332031 -1.632813 l -2.15625 -1.632813 c 0.300781 -0.90625 0.515625 -1.847656 0.640625 -2.816406 l 2.800781 -0.347656 c 0.628906 -0.078125 1.105469 -0.617188 1.105469 -1.25 v -1.890625 c 0 -0.632813 -0.476563 -1.171875 -1.105469 -1.25 l -3.019531 -0.375 c -0.191406 -0.867187 -0.457032 -1.707031 -0.789063 -2.511719 l 2.523438 -1.910156 c 0.507812 -0.382812 0.648437 -1.085938 0.332031 -1.636719 l -0.945312 -1.632812 c -0.152344 -0.265625 -0.398438 -0.46875 -0.691407 -0.566407 c -0.09375 -0.03125 -0.195312 -0.050781 -0.292969 -0.0625 c -0.207031 -0.015624 -0.410156 0.015626 -0.597656 0.097657 l -3.105468 1.308593 c -0.539063 -0.59375 -1.125 -1.140624 -1.746094 -1.644531 l 1.339844 -3.179687 c 0.246093 -0.585938 0.019531 -1.261719 -0.53125 -1.578125 l -1.632813 -0.945313 c -0.179687 -0.101562 -0.375 -0.160156 -0.578125 -0.167968 c -0.101562 -0.003907 -0.203125 0.003906 -0.304688 0.023437 c -0.300781 0.0625 -0.570312 0.230469 -0.753906 0.476563 l -2.140625 2.828124 c -0.714843 -0.246093 -1.457031 -0.4375 -2.214843 -0.574218 l -0.441407 -3.542969 c -0.082031 -0.628906 -0.617187 -1.101563 -1.25 -1.101563 z m -35.820312 5.175782 c -0.636719 0 -1.171875 0.472656 -1.25 1.105468 l -0.441406 3.539063 c -0.757813 0.136719 -1.5 0.328125 -2.214844 0.574219 l -2.140625 -2.828125 c -0.1875 -0.242188 -0.453125 -0.414063 -0.753907 -0.472657 c -0.101562 -0.019531 -0.203124 -0.027343 -0.304687 -0.023437 c -0.203125 0.007813 -0.398437 0.0625 -0.574219 0.164063 l -1.636718 0.945312 c -0.550782 0.316406 -0.78125 0.996094 -0.53125 1.582031 l 1.339843 3.175781 c -0.621093 0.503907 -1.207031 1.054688 -1.742187 1.648438 l -3.109375 -1.3125 c -0.1875 -0.078125 -0.394531 -0.109375 -0.59375 -0.09375 c -0.101563 0.007812 -0.203125 0.027344 -0.296875 0.0625 c -0.292969 0.097656 -0.539063 0.296875 -0.691406 0.5625 l -0.945313 1.636719 c -0.316406 0.546875 -0.175781 1.25 0.332031 1.632812 l 2.523438 1.910157 c -0.335938 0.804687 -0.597656 1.644531 -0.785156 2.511718 l -3.023438 0.378906 c -0.632812 0.078126 -1.105469 0.613282 -1.105469 1.246094 v 1.890625 c 0 0.636719 0.472657 1.171875 1.105469 1.25 l 2.800781 0.351563 c 0.125 0.96875 0.339844 1.910156 0.640625 2.8125 l -2.15625 1.636718 c -0.507812 0.382813 -0.648437 1.082032 -0.332031 1.632813 l 0.945313 1.636719 c 0.316406 0.546875 0.996093 0.773437 1.582031 0.527344 l 2.332031 -0.984376 c 0.632812 0.820313 1.34375 1.574219 2.128906 2.25 l -0.949218 2.25 c -0.25 0.585938 -0.019532 1.261719 0.53125 1.578126 l 1.636718 0.945312 c 0.546875 0.316406 1.25 0.175781 1.632813 -0.332031 l 1.398437 -1.84375 c 0.992188 0.398437 2.035156 0.695312 3.117188 0.878906 l 0.28125 2.253906 c 0.078125 0.628907 0.613281 1.101563 1.25 1.101563 h 1.890625 c 0.632812 0 1.167969 -0.472656 1.25 -1.101563 l 0.28125 -2.253906 c 1.082031 -0.183594 2.125 -0.480469 3.117187 -0.878906 l 1.398438 1.84375 c 0.382812 0.507812 1.085937 0.652343 1.636718 0.332031 l 1.632813 -0.945312 c 0.550781 -0.316407 0.777344 -0.992188 0.53125 -1.578126 l -0.945313 -2.25 c 0.78125 -0.675781 1.492188 -1.429687 2.125 -2.25 l 2.335938 0.984376 c 0.582031 0.246093 1.261719 0.019531 1.578125 -0.527344 l 0.945313 -1.636719 c 0.316406 -0.550781 0.171874 -1.25 -0.332032 -1.632813 l -2.15625 -1.636718 c 0.300782 -0.902344 0.515625 -1.84375 0.640625 -2.8125 l 2.804688 -0.351563 c 0.628906 -0.078125 1.101562 -0.613281 1.101562 -1.25 v -1.890625 c 0 -0.632812 -0.472656 -1.167968 -1.101562 -1.246094 l -3.023438 -0.378906 c -0.191406 -0.867187 -0.457031 -1.707031 -0.789062 -2.511718 l 2.523437 -1.910157 c 0.503906 -0.382812 0.648438 -1.085937 0.332032 -1.632812 l -0.945313 -1.636719 c -0.152344 -0.265625 -0.398437 -0.464844 -0.6875 -0.5625 c -0.097656 -0.035156 -0.199219 -0.054688 -0.296875 -0.0625 c -0.203125 -0.015625 -0.410156 0.015625 -0.59375 0.09375 l -3.109375 1.3125 c -0.539063 -0.59375 -1.121094 -1.144531 -1.746094 -1.648438 l 1.339844 -3.175781 c 0.246094 -0.585937 0.019531 -1.265625 -0.53125 -1.582031 l -1.632813 -0.941406 c -0.179687 -0.101563 -0.375 -0.160156 -0.578124 -0.167969 c -0.101563 -0.003906 -0.203126 0.003906 -0.300782 0.023437 c -0.304687 0.058594 -0.570312 0.226563 -0.757812 0.472657 l -2.140625 2.828125 c -0.714844 -0.246094 -1.457031 -0.4375 -2.214844 -0.574219 l -0.441406 -3.539063 c -0.082031 -0.632812 -0.617188 -1.105468 -1.25 -1.105468 z m 36.765625 6.789062 c 4.214843 0 7.554687 3.335938 7.554687 7.554688 s -3.339844 7.554687 -7.554687 7.554687 c -4.21875 0 -7.554688 -3.335937 -7.554688 -7.554687 s 3.335938 -7.554688 7.554688 -7.554688 z m -35.820313 5.175782 c 4.21875 0 7.554688 3.335937 7.554688 7.554687 s -3.335938 7.558594 -7.554688 7.558594 s -7.554687 -3.339844 -7.554687 -7.558594 s 3.335937 -7.554687 7.554687 -7.554687 z m 0 0" fill="#77767b"/>
                <path d="m 73.847656 6.992188 c -0.636718 0 -1.171875 0.472656 -1.25 1.101562 l -0.441406 3.542969 c -0.761719 0.132812 -1.5 0.328125 -2.214844 0.574219 l -2.140625 -2.832032 c -0.1875 -0.242187 -0.457031 -0.410156 -0.757812 -0.472656 c -0.097657 -0.019531 -0.199219 -0.027344 -0.300781 -0.023438 c -0.203126 0.007813 -0.402344 0.066407 -0.578126 0.167969 l -1.632812 0.945313 c -0.550781 0.316406 -0.78125 0.992187 -0.53125 1.578125 l 1.339844 3.179687 c -0.625 0.5 -1.210938 1.050782 -1.746094 1.644532 l -3.109375 -1.3125 c -0.1875 -0.078126 -0.390625 -0.109376 -0.59375 -0.09375 c -0.101563 0.007812 -0.199219 0.03125 -0.296875 0.0625 c -0.289062 0.097656 -0.535156 0.296874 -0.6875 0.5625 l -0.945312 1.636718 c -0.316407 0.550782 -0.175782 1.25 0.332031 1.632813 l 2.523437 1.910156 c -0.335937 0.808594 -0.597656 1.644531 -0.789062 2.511719 l -3.023438 0.378906 c -0.628906 0.078125 -1.101562 0.613281 -1.101562 1.25 v 1.886719 c 0 0.636719 0.472656 1.171875 1.101562 1.25 l 2.804688 0.351562 c 0.121094 0.96875 0.339844 1.910157 0.640625 2.816407 l -2.15625 1.632812 c -0.507813 0.382812 -0.648438 1.082031 -0.332031 1.632812 l 0.945312 1.636719 c 0.316406 0.550781 0.992188 0.777344 1.578125 0.53125 l 2.335937 -0.984375 c 0.628907 0.820313 1.34375 1.574219 2.128907 2.25 l -0.949219 2.246094 c -0.25 0.585938 -0.019531 1.265625 0.53125 1.582031 l 1.632812 0.941407 c 0.550782 0.316406 1.25 0.175781 1.632813 -0.328126 l 1.398437 -1.847656 c 0.992188 0.402344 2.039063 0.699219 3.121094 0.878906 l 0.28125 2.253907 c 0.078125 0.628906 0.617188 1.101562 1.25 1.101562 h 1.890625 c 0.632813 0 1.167969 -0.472656 1.25 -1.101562 l 0.28125 -2.253907 c 1.082031 -0.179687 2.125 -0.476562 3.117188 -0.878906 l 1.398437 1.847656 c 0.382813 0.503907 1.085938 0.648438 1.636719 0.328126 l 1.632813 -0.941407 c 0.550781 -0.316406 0.777343 -0.996093 0.53125 -1.582031 l -0.949219 -2.246094 c 0.78125 -0.675781 1.496093 -1.429687 2.128906 -2.25 l 2.332031 0.984375 c 0.585938 0.246094 1.261719 0.019531 1.582032 -0.53125 l 0.945312 -1.636719 c 0.316406 -0.550781 0.175781 -1.25 -0.332031 -1.632812 l -2.15625 -1.632812 c 0.300781 -0.90625 0.515625 -1.847657 0.640625 -2.816407 l 2.800781 -0.351562 c 0.628906 -0.078125 1.105469 -0.613281 1.105469 -1.25 v -1.886719 c 0 -0.636719 -0.476563 -1.171875 -1.105469 -1.25 l -3.019531 -0.378906 c -0.191406 -0.867188 -0.457032 -1.703125 -0.789063 -2.511719 l 2.523438 -1.910156 c 0.507812 -0.382813 0.648437 -1.082031 0.332031 -1.632813 l -0.945312 -1.636718 c -0.15625 -0.265626 -0.398438 -0.464844 -0.691407 -0.5625 c -0.097656 -0.03125 -0.195312 -0.054688 -0.296875 -0.0625 c -0.203125 -0.015626 -0.40625 0.015624 -0.59375 0.09375 l -3.105468 1.3125 c -0.539063 -0.59375 -1.125 -1.144532 -1.746094 -1.644532 l 1.339844 -3.179687 c 0.246093 -0.585938 0.019531 -1.261719 -0.53125 -1.578125 l -1.632813 -0.945313 c -0.179687 -0.101562 -0.375 -0.160156 -0.578125 -0.167969 c -0.101562 -0.003906 -0.203125 0.003907 -0.304688 0.023438 c -0.300781 0.0625 -0.566406 0.230469 -0.753906 0.472656 l -2.140625 2.832032 c -0.71875 -0.246094 -1.457031 -0.441407 -2.214843 -0.574219 l -0.441407 -3.542969 c -0.082031 -0.628906 -0.617187 -1.101562 -1.25 -1.101562 z m -35.820312 5.175781 c -0.632813 0 -1.171875 0.472656 -1.25 1.101562 l -0.441406 3.542969 c -0.757813 0.136719 -1.5 0.328125 -2.214844 0.574219 l -2.140625 -2.828125 c -0.1875 -0.246094 -0.453125 -0.414063 -0.753907 -0.476563 c -0.101562 -0.019531 -0.203124 -0.027343 -0.304687 -0.023437 c -0.203125 0.007812 -0.398437 0.066406 -0.574219 0.167968 l -1.636718 0.945313 c -0.550782 0.316406 -0.78125 0.992187 -0.53125 1.578125 l 1.339843 3.179688 c -0.621093 0.503906 -1.210937 1.054687 -1.746093 1.648437 l -3.105469 -1.3125 c -0.1875 -0.078125 -0.394531 -0.113281 -0.59375 -0.09375 c -0.101563 0.007813 -0.203125 0.027344 -0.296875 0.058594 c -0.292969 0.097656 -0.539063 0.300781 -0.691406 0.566406 l -0.945313 1.632813 c -0.316406 0.550781 -0.175781 1.253906 0.332031 1.636718 l 2.523438 1.910156 c -0.335938 0.804688 -0.597656 1.644532 -0.789063 2.511719 l -3.019531 0.375 c -0.632812 0.078125 -1.105469 0.617188 -1.105469 1.25 v 1.890625 c 0 0.632813 0.472657 1.171875 1.105469 1.25 l 2.800781 0.347656 c 0.121094 0.96875 0.339844 1.914063 0.640625 2.816407 l -2.15625 1.632812 c -0.507812 0.382813 -0.648437 1.085938 -0.332031 1.636719 l 0.945313 1.632812 c 0.316406 0.550782 0.996093 0.777344 1.582031 0.53125 l 2.332031 -0.984374 c 0.628906 0.820312 1.34375 1.574218 2.128906 2.25 l -0.949218 2.246093 c -0.25 0.585938 -0.023438 1.265625 0.53125 1.582031 l 1.636718 0.945313 c 0.546875 0.316406 1.246094 0.175781 1.632813 -0.332031 l 1.398437 -1.847656 c 0.992188 0.402343 2.035156 0.699218 3.117188 0.878906 l 0.28125 2.253906 c 0.078125 0.632812 0.613281 1.105469 1.25 1.105469 h 1.890625 c 0.632812 0 1.167969 -0.472657 1.25 -1.105469 l 0.28125 -2.253906 c 1.082031 -0.179688 2.125 -0.476563 3.117187 -0.878906 l 1.398438 1.847656 c 0.382812 0.507812 1.085937 0.648437 1.636718 0.332031 l 1.632813 -0.945313 c 0.550781 -0.316406 0.777344 -0.996093 0.53125 -1.582031 l -0.949219 -2.246093 c 0.78125 -0.675782 1.496094 -1.429688 2.128906 -2.25 l 2.335938 0.984374 c 0.582031 0.246094 1.261719 0.019532 1.578125 -0.53125 l 0.945313 -1.632812 c 0.316406 -0.550781 0.175781 -1.253906 -0.332032 -1.636719 l -2.15625 -1.632812 c 0.300782 -0.902344 0.515625 -1.847657 0.640625 -2.816407 l 2.804688 -0.347656 c 0.628906 -0.082031 1.101562 -0.617187 1.101562 -1.25 v -1.890625 c 0 -0.632812 -0.472656 -1.167969 -1.101562 -1.25 l -3.023438 -0.375 c -0.191406 -0.867187 -0.457031 -1.707031 -0.789062 -2.511719 l 2.523437 -1.910156 c 0.507813 -0.382812 0.648438 -1.085937 0.332032 -1.636718 l -0.945313 -1.632813 c -0.152344 -0.265625 -0.398437 -0.46875 -0.6875 -0.566406 c -0.097656 -0.03125 -0.199219 -0.050781 -0.296875 -0.058594 c -0.203125 -0.019531 -0.40625 0.015625 -0.59375 0.09375 l -3.109375 1.3125 c -0.539063 -0.59375 -1.121094 -1.144531 -1.746094 -1.648437 l 1.339844 -3.179688 c 0.246094 -0.582031 0.019531 -1.261719 -0.53125 -1.578125 l -1.632813 -0.945313 c -0.179687 -0.101562 -0.375 -0.160156 -0.578124 -0.167968 c -0.101563 -0.003906 -0.203126 0.003906 -0.300782 0.023437 c -0.304687 0.0625 -0.570312 0.230469 -0.757812 0.476563 l -2.140625 2.828125 c -0.714844 -0.246094 -1.457031 -0.4375 -2.214844 -0.574219 l -0.441406 -3.542969 c -0.082031 -0.628906 -0.617188 -1.101562 -1.25 -1.101562 z m 36.765625 6.785156 c 4.214843 0 7.554687 3.339844 7.554687 7.558594 s -3.339844 7.554687 -7.554687 7.554687 c -4.21875 0 -7.554688 -3.335937 -7.554688 -7.554687 s 3.335938 -7.558594 7.554688 -7.558594 z m -35.820313 5.179687 c 4.21875 0 7.554688 3.335938 7.554688 7.554688 s -3.335938 7.554688 -7.554688 7.554688 s -7.554687 -3.335938 -7.554687 -7.554688 s 3.335937 -7.554688 7.554687 -7.554688 z m 0 0" fill="#f6f5f4"/>
                <path d="m 16.988281 30.839844 h 94.023438 c 4.722656 0 8.550781 3.226562 8.550781 7.203125 v 70.257812 c 0 3.976563 -3.828125 7.203125 -8.550781 7.203125 h -94.023438 c -4.722656 0 -8.550781 -3.226562 -8.550781 -7.203125 v -70.257812 c 0 -3.976563 3.828125 -7.203125 8.550781 -7.203125 z m 0 0" fill="url(#a)"/>
                <path d="m 16.988281 21.832031 h 94.023438 c 4.722656 0 8.550781 3.226563 8.550781 7.207031 v 72.054688 c 0 3.980469 -3.828125 7.207031 -8.550781 7.207031 h -94.023438 c -4.722656 0 -8.550781 -3.226562 -8.550781 -7.207031 v -72.054688 c 0 -3.980468 3.828125 -7.207031 8.550781 -7.207031 z m 0 0" fill="url(#b)"/>
                <path d="m 16.988281 23.632812 h 94.023438 c 3.542969 0 6.414062 2.421876 6.414062 5.40625 v 72.054688 c 0 2.984375 -2.871093 5.402344 -6.414062 5.402344 h -94.023438 c -3.539062 0 -6.414062 -2.417969 -6.414062 -5.402344 v -72.054688 c 0 -2.984374 2.875 -5.40625 6.414062 -5.40625 z m 0 0" fill="#5e5c64"/>
                <path d="m 64 42.703125 c -8.144531 0 -14.742188 6.601563 -14.742188 14.746094 c 0 8.140625 6.597657 14.742187 14.742188 14.742187 s 14.746094 -6.601562 14.746094 -14.742187 c 0 -8.144531 -6.601563 -14.746094 -14.746094 -14.746094 z m -24.449219 35.300781 c -1.28125 0 -2.308593 1.027344 -2.308593 2.308594 v 6.808594 c 0 1.277344 1.027343 2.304687 2.308593 2.304687 h 48.898438 c 1.277343 0 2.308593 -1.027343 2.308593 -2.304687 v -6.808594 c 0 -1.28125 -1.03125 -2.308594 -2.308593 -2.308594 z m 0 0" fill="#241f31"/>
                <path d="m 78.742188 55.449219 c 0 8.140625 -6.597657 14.742187 -14.742188 14.742187 s -14.742188 -6.601562 -14.742188 -14.742187 c 0 -8.144531 6.597657 -14.746094 14.742188 -14.746094 s 14.742188 6.601563 14.742188 14.746094 z m 0 0" fill="#c0bfbc"/>
                <path d="m 64 43.992188 c -2.378906 0 -4.308594 1.929687 -4.308594 4.308593 c 0 2.378907 1.929688 4.308594 4.308594 4.308594 s 4.308594 -1.929687 4.308594 -4.308594 c 0 -2.378906 -1.929688 -4.308593 -4.308594 -4.308593 z m -2.152344 10.054687 c -3.582031 0 -6.464844 2.882813 -6.464844 6.460937 v 0.71875 c 0 1.59375 1.28125 2.871094 2.875 2.871094 h 11.484376 c 1.59375 0 2.875 -1.277344 2.875 -2.871094 v -0.71875 c 0 -3.578124 -2.882813 -6.460937 -6.464844 -6.460937 z m 0 0" fill="#241f31"/>
                <path d="m 96.390625 42.394531 c -3.425781 2.964844 -5.601563 7.335938 -5.632813 12.222657 c -0.035156 6.035156 3.210938 11.324218 8.070313 14.175781 c 0 0.046875 -0.003906 0.09375 -0.003906 0.140625 l -0.234375 38.722656 c -0.027344 4.515625 3.582031 8.175781 8.101562 8.203125 c 4.519532 0.027344 8.175782 -3.585937 8.203125 -8.105469 l 0.234375 -38.71875 c 0 -0.050781 0 -0.097656 -0.003906 -0.144531 c 4.890625 -2.789063 8.203125 -8.039063 8.242188 -14.074219 c 0.039062 -6.839844 -4.140626 -12.722656 -10.097657 -15.179687 l -0.082031 13.082031 l -6.132812 3.019531 l -6.09375 -3.09375 l 0.078124 -13.082031 c -1.1875 0.472656 -2.304687 1.078125 -3.335937 1.800781 c -0.457031 0.320313 -0.894531 0.664063 -1.316406 1.03125 z m 8.316406 62.015625 c 0.546875 -0.488281 1.269531 -0.785156 2.058594 -0.78125 c 1.6875 0.011719 3.050781 1.386719 3.039063 3.074219 c -0.007813 1.691406 -1.386719 3.050781 -3.074219 3.039063 c -1.6875 -0.007813 -3.050781 -1.386719 -3.039063 -3.074219 c 0.003906 -0.898438 0.398438 -1.703125 1.015625 -2.257813 z m 0 0" fill="#1a5fb4"/>
                <path d="m 96.402344 40.355469 c -3.425782 2.96875 -5.601563 7.339843 -5.628906 12.226562 c -0.039063 6.035157 3.210937 11.324219 8.066406 14.171875 c 0 0.046875 -0.003906 0.09375 -0.003906 0.140625 l -0.230469 38.722657 c -0.027344 4.519531 3.582031 8.175781 8.101562 8.203124 c 4.515625 0.027344 8.171875 -3.585937 8.199219 -8.101562 l 0.234375 -38.722656 c 0 -0.050782 0 -0.097656 0 -0.144532 c 4.890625 -2.789062 8.203125 -8.039062 8.238281 -14.074218 c 0.042969 -6.839844 -4.136718 -12.722656 -10.097656 -15.175782 l -0.089844 15.117188 l -6.132812 3.019531 l -6.097656 -3.097656 l 0.089843 -15.117187 c -1.183593 0.472656 -2.300781 1.078124 -3.332031 1.804687 c -0.457031 0.320313 -0.894531 0.664063 -1.316406 1.027344 z m 8.316406 62.019531 c 0.546875 -0.492188 1.269531 -0.789062 2.058594 -0.785156 c 1.691406 0.011718 3.050781 1.390625 3.039062 3.078125 c -0.007812 1.6875 -1.386718 3.046875 -3.074218 3.039062 c -1.6875 -0.011719 -3.046876 -1.390625 -3.039063 -3.078125 c 0.007813 -0.894531 0.398437 -1.699218 1.015625 -2.253906 z m 0 0" fill="#62a0ea"/>
            </g>
        </g>
    </mask>
    <mask id="g">
        <g filter="url(#e)">
            <rect fill-opacity="0.8" height="128" width="128"/>
        </g>
    </mask>
    <linearGradient id="h" gradientTransform="matrix(0 0.37 -0.98462 0 295.38501 -30.360001)" gradientUnits="userSpaceOnUse" x1="300" x2="428" y1="235" y2="235">
        <stop offset="0" stop-color="#f9f06b"/>
        <stop offset="1" stop-color="#f5c211"/>
    </linearGradient>
    <clipPath id="i">
        <rect height="128" width="128"/>
    </clipPath>
    <clipPath id="j">
        <rect height="128" width="128"/>
    </clipPath>
    <path d="m 73.847656 7.664062 c -0.636718 0 -1.171875 0.472657 -1.25 1.101563 l -0.441406 3.542969 c -0.761719 0.136718 -1.5 0.328125 -2.214844 0.574218 l -2.140625 -2.828124 c -0.1875 -0.246094 -0.453125 -0.414063 -0.753906 -0.476563 c -0.101563 -0.019531 -0.203125 -0.027344 -0.304687 -0.023437 c -0.203126 0.007812 -0.402344 0.066406 -0.578126 0.167968 l -1.632812 0.945313 c -0.550781 0.316406 -0.78125 0.992187 -0.53125 1.578125 l 1.339844 3.179687 c -0.625 0.503907 -1.210938 1.050781 -1.746094 1.644531 l -3.109375 -1.308593 c -0.1875 -0.082031 -0.390625 -0.113281 -0.59375 -0.097657 c -0.101563 0.011719 -0.199219 0.03125 -0.292969 0.0625 c -0.292968 0.097657 -0.539062 0.300782 -0.691406 0.566407 l -0.945312 1.632812 c -0.316407 0.550781 -0.175782 1.253907 0.332031 1.636719 l 2.523437 1.910156 c -0.335937 0.804688 -0.597656 1.644532 -0.789062 2.511719 l -3.019532 0.375 c -0.632812 0.078125 -1.105468 0.617187 -1.105468 1.25 v 1.890625 c 0 0.632812 0.472656 1.171875 1.105468 1.25 l 2.800782 0.347656 c 0.121094 0.96875 0.339844 1.910156 0.640625 2.816406 l -2.15625 1.632813 c -0.507813 0.382813 -0.648438 1.082031 -0.332031 1.632813 l 0.945312 1.636718 c 0.316406 0.550782 0.992188 0.777344 1.578125 0.53125 l 2.335937 -0.984375 c 0.628907 0.820313 1.34375 1.574219 2.128907 2.25 l -0.949219 2.246094 c -0.25 0.585937 -0.019531 1.261719 0.53125 1.582031 l 1.632812 0.945313 c 0.550782 0.316406 1.25 0.175781 1.636719 -0.332031 l 1.394531 -1.847657 c 0.992188 0.402344 2.039063 0.699219 3.121094 0.878907 l 0.28125 2.253906 c 0.078125 0.632812 0.613282 1.105468 1.25 1.105468 h 1.890625 c 0.632813 0 1.167969 -0.472656 1.25 -1.105468 l 0.28125 -2.253906 c 1.082031 -0.179688 2.125 -0.476563 3.117188 -0.878907 l 1.398437 1.847657 c 0.382813 0.507812 1.085938 0.648437 1.636719 0.332031 l 1.632813 -0.945313 c 0.550781 -0.320312 0.777343 -0.996094 0.53125 -1.582031 l -0.949219 -2.246094 c 0.78125 -0.675781 1.496093 -1.429687 2.128906 -2.25 l 2.332031 0.984375 c 0.585938 0.25 1.265625 0.019532 1.582032 -0.53125 l 0.945312 -1.636718 c 0.316406 -0.550782 0.171875 -1.25 -0.332031 -1.632813 l -2.15625 -1.632813 c 0.300781 -0.90625 0.515625 -1.847656 0.640625 -2.816406 l 2.800781 -0.347656 c 0.628906 -0.078125 1.105469 -0.617188 1.105469 -1.25 v -1.890625 c 0 -0.632813 -0.476563 -1.171875 -1.105469 -1.25 l -3.019531 -0.375 c -0.191406 -0.867187 -0.457032 -1.707031 -0.789063 -2.511719 l 2.523438 -1.910156 c 0.507812 -0.382812 0.648437 -1.085938 0.332031 -1.636719 l -0.945312 -1.632812 c -0.152344 -0.265625 -0.398438 -0.46875 -0.691407 -0.566407 c -0.09375 -0.03125 -0.195312 -0.050781 -0.292969 -0.0625 c -0.207031 -0.015624 -0.410156 0.015626 -0.597656 0.097657 l -3.105468 1.308593 c -0.539063 -0.59375 -1.125 -1.140624 -1.746094 -1.644531 l 1.339844 -3.179687 c 0.246093 -0.585938 0.019531 -1.261719 -0.53125 -1.578125 l -1.632813 -0.945313 c -0.179687 -0.101562 -0.375 -0.160156 -0.578125 -0.167968 c -0.101562 -0.003907 -0.203125 0.003906 -0.304688 0.023437 c -0.300781 0.0625 -0.570312 0.230469 -0.753906 0.476563 l -2.140625 2.828124 c -0.714843 -0.246093 -1.457031 -0.4375 -2.214843 -0.574218 l -0.441407 -3.542969 c -0.082031 -0.628906 -0.617187 -1.101563 -1.25 -1.101563 z m -35.820312 5.175782 c -0.636719 0 -1.171875 0.472656 -1.25 1.105468 l -0.441406 3.539063 c -0.757813 0.136719 -1.5 0.328125 -2.214844 0.574219 l -2.140625 -2.828125 c -0.1875 -0.242188 -0.453125 -0.414063 -0.753907 -0.472657 c -0.101562 -0.019531 -0.203124 -0.027343 -0.304687 -0.023437 c -0.203125 0.007813 -0.398437 0.0625 -0.574219 0.164063 l -1.636718 0.945312 c -0.550782 0.316406 -0.78125 0.996094 -0.53125 1.582031 l 1.339843 3.175781 c -0.621093 0.503907 -1.207031 1.054688 -1.742187 1.648438 l -3.109375 -1.3125 c -0.1875 -0.078125 -0.394531 -0.109375 -0.59375 -0.09375 c -0.101563 0.007812 -0.203125 0.027344 -0.296875 0.0625 c -0.292969 0.097656 -0.539063 0.296875 -0.691406 0.5625 l -0.945313 1.636719 c -0.316406 0.546875 -0.175781 1.25 0.332031 1.632812 l 2.523438 1.910157 c -0.335938 0.804687 -0.597656 1.644531 -0.785156 2.511718 l -3.023438 0.378906 c -0.632812 0.078126 -1.105469 0.613282 -1.105469 1.246094 v 1.890625 c 0 0.636719 0.472657 1.171875 1.105469 1.25 l 2.800781 0.351563 c 0.125 0.96875 0.339844 1.910156 0.640625 2.8125 l -2.15625 1.636718 c -0.507812 0.382813 -0.648437 1.082032 -0.332031 1.632813 l 0.945313 1.636719 c 0.316406 0.546875 0.996093 0.773437 1.582031 0.527344 l 2.332031 -0.984376 c 0.632812 0.820313 1.34375 1.574219 2.128906 2.25 l -0.949218 2.25 c -0.25 0.585938 -0.019532 1.261719 0.53125 1.578126 l 1.636718 0.945312 c 0.546875 0.316406 1.25 0.175781 1.632813 -0.332031 l 1.398437 -1.84375 c 0.992188 0.398437 2.035156 0.695312 3.117188 0.878906 l 0.28125 2.253906 c 0.078125 0.628907 0.613281 1.101563 1.25 1.101563 h 1.890625 c 0.632812 0 1.167969 -0.472656 1.25 -1.101563 l 0.28125 -2.253906 c 1.082031 -0.183594 2.125 -0.480469 3.117187 -0.878906 l 1.398438 1.84375 c 0.382812 0.507812 1.085937 0.652343 1.636718 0.332031 l 1.632813 -0.945312 c 0.550781 -0.316407 0.777344 -0.992188 0.53125 -1.578126 l -0.945313 -2.25 c 0.78125 -0.675781 1.492188 -1.429687 2.125 -2.25 l 2.335938 0.984376 c 0.582031 0.246093 1.261719 0.019531 1.578125 -0.527344 l 0.945313 -1.636719 c 0.316406 -0.550781 0.171874 -1.25 -0.332032 -1.632813 l -2.15625 -1.636718 c 0.300782 -0.902344 0.515625 -1.84375 0.640625 -2.8125 l 2.804688 -0.351563 c 0.628906 -0.078125 1.101562 -0.613281 1.101562 -1.25 v -1.890625 c 0 -0.632812 -0.472656 -1.167968 -1.101562 -1.246094 l -3.023438 -0.378906 c -0.191406 -0.867187 -0.457031 -1.707031 -0.789062 -2.511718 l 2.523437 -1.910157 c 0.503906 -0.382812 0.648438 -1.085937 0.332032 -1.632812 l -0.945313 -1.636719 c -0.152344 -0.265625 -0.398437 -0.464844 -0.6875 -0.5625 c -0.097656 -0.035156 -0.199219 -0.054688 -0.296875 -0.0625 c -0.203125 -0.015625 -0.410156 0.015625 -0.59375 0.09375 l -3.109375 1.3125 c -0.539063 -0.59375 -1.121094 -1.144531 -1.746094 -1.648438 l 1.339844 -3.175781 c 0.246094 -0.585937 0.019531 -1.265625 -0.53125 -1.582031 l -1.632813 -0.941406 c -0.179687 -0.101563 -0.375 -0.160156 -0.578124 -0.167969 c -0.101563 -0.003906 -0.203126 0.003906 -0.300782 0.023437 c -0.304687 0.058594 -0.570312 0.226563 -0.757812 0.472657 l -2.140625 2.828125 c -0.714844 -0.246094 -1.457031 -0.4375 -2.214844 -0.574219 l -0.441406 -3.539063 c -0.082031 -0.632812 -0.617188 -1.105468 -1.25 -1.105468 z m 36.765625 6.789062 c 4.214843 0 7.554687 3.335938 7.554687 7.554688 s -3.339844 7.554687 -7.554687 7.554687 c -4.21875 0 -7.554688 -3.335937 -7.554688 -7.554687 s 3.335938 -7.554688 7.554688 -7.554688 z m -35.820313 5.175782 c 4.21875 0 7.554688 3.335937 7.554688 7.554687 s -3.335938 7.558594 -7.554688 7.558594 s -7.554687 -3.339844 -7.554687 -7.558594 s 3.335937 -7.554687 7.554687 -7.554687 z m 0 0" fill="#77767b"/>
    <path d="m 73.847656 6.992188 c -0.636718 0 -1.171875 0.472656 -1.25 1.101562 l -0.441406 3.542969 c -0.761719 0.132812 -1.5 0.328125 -2.214844 0.574219 l -2.140625 -2.832032 c -0.1875 -0.242187 -0.457031 -0.410156 -0.757812 -0.472656 c -0.097657 -0.019531 -0.199219 -0.027344 -0.300781 -0.023438 c -0.203126 0.007813 -0.402344 0.066407 -0.578126 0.167969 l -1.632812 0.945313 c -0.550781 0.316406 -0.78125 0.992187 -0.53125 1.578125 l 1.339844 3.179687 c -0.625 0.5 -1.210938 1.050782 -1.746094 1.644532 l -3.109375 -1.3125 c -0.1875 -0.078126 -0.390625 -0.109376 -0.59375 -0.09375 c -0.101563 0.007812 -0.199219 0.03125 -0.296875 0.0625 c -0.289062 0.097656 -0.535156 0.296874 -0.6875 0.5625 l -0.945312 1.636718 c -0.316407 0.550782 -0.175782 1.25 0.332031 1.632813 l 2.523437 1.910156 c -0.335937 0.808594 -0.597656 1.644531 -0.789062 2.511719 l -3.023438 0.378906 c -0.628906 0.078125 -1.101562 0.613281 -1.101562 1.25 v 1.886719 c 0 0.636719 0.472656 1.171875 1.101562 1.25 l 2.804688 0.351562 c 0.121094 0.96875 0.339844 1.910157 0.640625 2.816407 l -2.15625 1.632812 c -0.507813 0.382812 -0.648438 1.082031 -0.332031 1.632812 l 0.945312 1.636719 c 0.316406 0.550781 0.992188 0.777344 1.578125 0.53125 l 2.335937 -0.984375 c 0.628907 0.820313 1.34375 1.574219 2.128907 2.25 l -0.949219 2.246094 c -0.25 0.585938 -0.019531 1.265625 0.53125 1.582031 l 1.632812 0.941407 c 0.550782 0.316406 1.25 0.175781 1.632813 -0.328126 l 1.398437 -1.847656 c 0.992188 0.402344 2.039063 0.699219 3.121094 0.878906 l 0.28125 2.253907 c 0.078125 0.628906 0.617188 1.101562 1.25 1.101562 h 1.890625 c 0.632813 0 1.167969 -0.472656 1.25 -1.101562 l 0.28125 -2.253907 c 1.082031 -0.179687 2.125 -0.476562 3.117188 -0.878906 l 1.398437 1.847656 c 0.382813 0.503907 1.085938 0.648438 1.636719 0.328126 l 1.632813 -0.941407 c 0.550781 -0.316406 0.777343 -0.996093 0.53125 -1.582031 l -0.949219 -2.246094 c 0.78125 -0.675781 1.496093 -1.429687 2.128906 -2.25 l 2.332031 0.984375 c 0.585938 0.246094 1.261719 0.019531 1.582032 -0.53125 l 0.945312 -1.636719 c 0.316406 -0.550781 0.175781 -1.25 -0.332031 -1.632812 l -2.15625 -1.632812 c 0.300781 -0.90625 0.515625 -1.847657 0.640625 -2.816407 l 2.800781 -0.351562 c 0.628906 -0.078125 1.105469 -0.613281 1.105469 -1.25 v -1.886719 c 0 -0.636719 -0.476563 -1.171875 -1.105469 -1.25 l -3.019531 -0.378906 c -0.191406 -0.867188 -0.457032 -1.703125 -0.789063 -2.511719 l 2.523438 -1.910156 c 0.507812 -0.382813 0.648437 -1.082031 0.332031 -1.632813 l -0.945312 -1.636718 c -0.15625 -0.265626 -0.398438 -0.464844 -0.691407 -0.5625 c -0.097656 -0.03125 -0.195312 -0.054688 -0.296875 -0.0625 c -0.203125 -0.015626 -0.40625 0.015624 -0.59375 0.09375 l -3.105468 1.3125 c -0.539063 -0.59375 -1.125 -1.144532 -1.746094 -1.644532 l 1.339844 -3.179687 c 0.246093 -0.585938 0.019531 -1.261719 -0.53125 -1.578125 l -1.632813 -0.945313 c -0.179687 -0.101562 -0.375 -0.160156 -0.578125 -0.167969 c -0.101562 -0.003906 -0.203125 0.003907 -0.304688 0.023438 c -0.300781 0.0625 -0.566406 0.230469 -0.753906 0.472656 l -2.140625 2.832032 c -0.71875 -0.246094 -1.457031 -0.441407 -2.214843 -0.574219 l -0.441407 -3.542969 c -0.082031 -0.628906 -0.617187 -1.101562 -1.25 -1.101562 z m -35.820312 5.175781 c -0.632813 0 -1.171875 0.472656 -1.25 1.101562 l -0.441406 3.542969 c -0.757813 0.136719 -1.5 0.328125 -2.214844 0.574219 l -2.140625 -2.828125 c -0.1875 -0.246094 -0.453125 -0.414063 -0.753907 -0.476563 c -0.101562 -0.019531 -0.203124 -0.027343 -0.304687 -0.023437 c -0.203125 0.007812 -0.398437 0.066406 -0.574219 0.167968 l -1.636718 0.945313 c -0.550782 0.316406 -0.78125 0.992187 -0.53125 1.578125 l 1.339843 3.179688 c -0.621093 0.503906 -1.210937 1.054687 -1.746093 1.648437 l -3.105469 -1.3125 c -0.1875 -0.078125 -0.394531 -0.113281 -0.59375 -0.09375 c -0.101563 0.007813 -0.203125 0.027344 -0.296875 0.058594 c -0.292969 0.097656 -0.539063 0.300781 -0.691406 0.566406 l -0.945313 1.632813 c -0.316406 0.550781 -0.175781 1.253906 0.332031 1.636718 l 2.523438 1.910156 c -0.335938 0.804688 -0.597656 1.644532 -0.789063 2.511719 l -3.019531 0.375 c -0.632812 0.078125 -1.105469 0.617188 -1.105469 1.25 v 1.890625 c 0 0.632813 0.472657 1.171875 1.105469 1.25 l 2.800781 0.347656 c 0.121094 0.96875 0.339844 1.914063 0.640625 2.816407 l -2.15625 1.632812 c -0.507812 0.382813 -0.648437 1.085938 -0.332031 1.636719 l 0.945313 1.632812 c 0.316406 0.550782 0.996093 0.777344 1.582031 0.53125 l 2.332031 -0.984374 c 0.628906 0.820312 1.34375 1.574218 2.128906 2.25 l -0.949218 2.246093 c -0.25 0.585938 -0.023438 1.265625 0.53125 1.582031 l 1.636718 0.945313 c 0.546875 0.316406 1.246094 0.175781 1.632813 -0.332031 l 1.398437 -1.847656 c 0.992188 0.402343 2.035156 0.699218 3.117188 0.878906 l 0.28125 2.253906 c 0.078125 0.632812 0.613281 1.105469 1.25 1.105469 h 1.890625 c 0.632812 0 1.167969 -0.472657 1.25 -1.105469 l 0.28125 -2.253906 c 1.082031 -0.179688 2.125 -0.476563 3.117187 -0.878906 l 1.398438 1.847656 c 0.382812 0.507812 1.085937 0.648437 1.636718 0.332031 l 1.632813 -0.945313 c 0.550781 -0.316406 0.777344 -0.996093 0.53125 -1.582031 l -0.949219 -2.246093 c 0.78125 -0.675782 1.496094 -1.429688 2.128906 -2.25 l 2.335938 0.984374 c 0.582031 0.246094 1.261719 0.019532 1.578125 -0.53125 l 0.945313 -1.632812 c 0.316406 -0.550781 0.175781 -1.253906 -0.332032 -1.636719 l -2.15625 -1.632812 c 0.300782 -0.902344 0.515625 -1.847657 0.640625 -2.816407 l 2.804688 -0.347656 c 0.628906 -0.082031 1.101562 -0.617187 1.101562 -1.25 v -1.890625 c 0 -0.632812 -0.472656 -1.167969 -1.101562 -1.25 l -3.023438 -0.375 c -0.191406 -0.867187 -0.457031 -1.707031 -0.789062 -2.511719 l 2.523437 -1.910156 c 0.507813 -0.382812 0.648438 -1.085937 0.332032 -1.636718 l -0.945313 -1.632813 c -0.152344 -0.265625 -0.398437 -0.46875 -0.6875 -0.566406 c -0.097656 -0.03125 -0.199219 -0.050781 -0.296875 -0.058594 c -0.203125 -0.019531 -0.40625 0.015625 -0.59375 0.09375 l -3.109375 1.3125 c -0.539063 -0.59375 -1.121094 -1.144531 -1.746094 -1.648437 l 1.339844 -3.179688 c 0.246094 -0.582031 0.019531 -1.261719 -0.53125 -1.578125 l -1.632813 -0.945313 c -0.179687 -0.101562 -0.375 -0.160156 -0.578124 -0.167968 c -0.101563 -0.003906 -0.203126 0.003906 -0.300782 0.023437 c -0.304687 0.0625 -0.570312 0.230469 -0.757812 0.476563 l -2.140625 2.828125 c -0.714844 -0.246094 -1.457031 -0.4375 -2.214844 -0.574219 l -0.441406 -3.542969 c -0.082031 -0.628906 -0.617188 -1.101562 -1.25 -1.101562 z m 36.765625 6.785156 c 4.214843 0 7.554687 3.339844 7.554687 7.558594 s -3.339844 7.554687 -7.554687 7.554687 c -4.21875 0 -7.554688 -3.335937 -7.554688 -7.554687 s 3.335938 -7.558594 7.554688 -7.558594 z m -35.820313 5.179687 c 4.21875 0 7.554688 3.335938 7.554688 7.554688 s -3.335938 7.554688 -7.554688 7.554688 s -7.554687 -3.335938 -7.554687 -7.554688 s 3.335937 -7.554688 7.554687 -7.554688 z m 0 0" fill="#f6f5f4"/>
    <path d="m 16.988281 30.839844 h 94.023438 c 4.722656 0 8.550781 3.226562 8.550781 7.203125 v 70.257812 c 0 3.976563 -3.828125 7.203125 -8.550781 7.203125 h -94.023438 c -4.722656 0 -8.550781 -3.226562 -8.550781 -7.203125 v -70.257812 c 0 -3.976563 3.828125 -7.203125 8.550781 -7.203125 z m 0 0" fill="url(#a)"/>
    <path d="m 16.988281 21.832031 h 94.023438 c 4.722656 0 8.550781 3.226563 8.550781 7.207031 v 72.054688 c 0 3.980469 -3.828125 7.207031 -8.550781 7.207031 h -94.023438 c -4.722656 0 -8.550781 -3.226562 -8.550781 -7.207031 v -72.054688 c 0 -3.980468 3.828125 -7.207031 8.550781 -7.207031 z m 0 0" fill="url(#b)"/>
    <path d="m 16.988281 23.632812 h 94.023438 c 3.542969 0 6.414062 2.421876 6.414062 5.40625 v 72.054688 c 0 2.984375 -2.871093 5.402344 -6.414062 5.402344 h -94.023438 c -3.539062 0 -6.414062 -2.417969 -6.414062 -5.402344 v -72.054688 c 0 -2.984374 2.875 -5.40625 6.414062 -5.40625 z m 0 0" fill="#5e5c64"/>
    <path d="m 64 42.703125 c -8.144531 0 -14.742188 6.601563 -14.742188 14.746094 c 0 8.140625 6.597657 14.742187 14.742188 14.742187 s 14.746094 -6.601562 14.746094 -14.742187 c 0 -8.144531 -6.601563 -14.746094 -14.746094 -14.746094 z m -24.449219 35.300781 c -1.28125 0 -2.308593 1.027344 -2.308593 2.308594 v 6.808594 c 0 1.277344 1.027343 2.304687 2.308593 2.304687 h 48.898438 c 1.277343 0 2.308593 -1.027343 2.308593 -2.304687 v -6.808594 c 0 -1.28125 -1.03125 -2.308594 -2.308593 -2.308594 z m 0 0" fill="#241f31"/>
    <path d="m 78.742188 55.449219 c 0 8.140625 -6.597657 14.742187 -14.742188 14.742187 s -14.742188 -6.601562 -14.742188 -14.742187 c 0 -8.144531 6.597657 -14.746094 14.742188 -14.746094 s 14.742188 6.601563 14.742188 14.746094 z m 0 0" fill="#c0bfbc"/>
    <path d="m 64 43.992188 c -2.378906 0 -4.308594 1.929687 -4.308594 4.308593 c 0 2.378907 1.929688 4.308594 4.308594 4.308594 s 4.308594 -1.929687 4.308594 -4.308594 c 0 -2.378906 -1.929688 -4.308593 -4.308594 -4.308593 z m -2.152344 10.054687 c -3.582031 0 -6.464844 2.882813 -6.464844 6.460937 v 0.71875 c 0 1.59375 1.28125 2.871094 2.875 2.871094 h 11.484376 c 1.59375 0 2.875 -1.277344 2.875 -2.871094 v -0.71875 c 0 -3.578124 -2.882813 -6.460937 -6.464844 -6.460937 z m 0 0" fill="#241f31"/>
    <path d="m 96.390625 42.394531 c -3.425781 2.964844 -5.601563 7.335938 -5.632813 12.222657 c -0.035156 6.035156 3.210938 11.324218 8.070313 14.175781 c 0 0.046875 -0.003906 0.09375 -0.003906 0.140625 l -0.234375 38.722656 c -0.027344 4.515625 3.582031 8.175781 8.101562 8.203125 c 4.519532 0.027344 8.175782 -3.585937 8.203125 -8.105469 l 0.234375 -38.71875 c 0 -0.050781 0 -0.097656 -0.003906 -0.144531 c 4.890625 -2.789063 8.203125 -8.039063 8.242188 -14.074219 c 0.039062 -6.839844 -4.140626 -12.722656 -10.097657 -15.179687 l -0.082031 13.082031 l -6.132812 3.019531 l -6.09375 -3.09375 l 0.078124 -13.082031 c -1.1875 0.472656 -2.304687 1.078125 -3.335937 1.800781 c -0.457031 0.320313 -0.894531 0.664063 -1.316406 1.03125 z m 8.316406 62.015625 c 0.546875 -0.488281 1.269531 -0.785156 2.058594 -0.78125 c 1.6875 0.011719 3.050781 1.386719 3.039063 3.074219 c -0.007813 1.691406 -1.386719 3.050781 -3.074219 3.039063 c -1.6875 -0.007813 -3.050781 -1.386719 -3.039063 -3.074219 c 0.003906 -0.898438 0.398438 -1.703125 1.015625 -2.257813 z m 0 0" fill="#1a5fb4"/>
    <path d="m 96.402344 40.355469 c -3.425782 2.96875 -5.601563 7.339843 -5.628906 12.226562 c -0.039063 6.035157 3.210937 11.324219 8.066406 14.171875 c 0 0.046875 -0.003906 0.09375 -0.003906 0.140625 l -0.230469 38.722657 c -0.027344 4.519531 3.582031 8.175781 8.101562 8.203124 c 4.515625 0.027344 8.171875 -3.585937 8.199219 -8.101562 l 0.234375 -38.722656 c 0 -0.050782 0 -0.097656 0 -0.144532 c 4.890625 -2.789062 8.203125 -8.039062 8.238281 -14.074218 c 0.042969 -6.839844 -4.136718 -12.722656 -10.097656 -15.175782 l -0.089844 15.117188 l -6.132812 3.019531 l -6.097656 -3.097656 l 0.089843 -15.117187 c -1.183593 0.472656 -2.300781 1.078124 -3.332031 1.804687 c -0.457031 0.320313 -0.894531 0.664063 -1.316406 1.027344 z m 8.316406 62.019531 c 0.546875 -0.492188 1.269531 -0.789062 2.058594 -0.785156 c 1.691406 0.011718 3.050781 1.390625 3.039062 3.078125 c -0.007812 1.6875 -1.386718 3.046875 -3.074218 3.039062 c -1.6875 -0.011719 -3.046876 -1.390625 -3.039063 -3.078125 c 0.007813 -0.894531 0.398437 -1.699218 1.015625 -2.253906 z m 0 0" fill="#62a0ea"/>
    <g clip-path="url(#j)" mask="url(#f)">
        <g clip-path="url(#i)" mask="url(#g)">
            <path d="m 128 80.640625 v 47.359375 h -128 v -47.359375 z m 0 0" fill="url(#h)"/>
            <path d="m 13.308594 80.640625 l 47.355468 47.359375 h 21.214844 l -47.359375 -47.359375 z m 42.421875 0 l 47.363281 47.359375 h 21.214844 l -47.363282 -47.359375 z m 42.429687 0 l 29.839844 29.839844 v -21.210938 l -8.628906 -8.628906 z m -98.160156 7.90625 v 21.214844 l 18.238281 18.238281 h 21.214844 z m 0 0"/>
        </g>
    </g>
</svg>
