<svg xmlns="http://www.w3.org/2000/svg" width="128" height="128" viewBox="0 0 33.867 33.867"><defs><linearGradient id="A" gradientUnits="userSpaceOnUse" x1="65.998" x2="121.159" y1="153.284" y2="153.284"><stop offset="0" stop-color="#3d3846"/><stop offset=".028" stop-color="#77767b"/><stop offset=".1" stop-color="#5e5c64"/><stop offset=".9" stop-color="#504e56"/><stop offset=".969" stop-color="#77767b"/><stop offset="1" stop-color="#3d3846"/></linearGradient><linearGradient id="B" gradientUnits="userSpaceOnUse" x1="65.998" x2="119.06" y1="151.496" y2="160.88"><stop offset="0" stop-color="#77767b"/><stop offset=".384" stop-color="#9a9996"/><stop offset=".721" stop-color="#77767b"/><stop offset="1" stop-color="#68666f"/></linearGradient></defs><g transform="matrix(.533 0 0 .533 -32.92115 -63.466511)"><path d="M98.465 123.002a.625.625 0 0 0-.62.548l-.22 1.759a7.41 7.41 0 0 0-1.099.284l-1.063-1.404a.625.625 0 0 0-.524-.247.625.625 0 0 0-.287.082l-.811.469a.625.625 0 0 0-.264.784l.665 1.578a7.61 7.61 0 0 0-.866.816l-1.543-.651a.625.625 0 0 0-.295-.048.625.625 0 0 0-.49.311l-.468.811a.625.625 0 0 0 .164.811l1.253.948a7.42 7.42 0 0 0-.391 1.247l-1.5.187a.625.625 0 0 0-.548.62v.937a.625.625 0 0 0 .548.62l1.39.174a7.4 7.4 0 0 0 .319 1.397l-1.071.811a.625.625 0 0 0-.164.81l.468.812a.625.625 0 0 0 .784.264l1.159-.489c.313.407.668.78 1.057 1.116l-.471 1.116a.625.625 0 0 0 .264.784l.811.469a.625.625 0 0 0 .811-.164l.693-.917c.493.199 1.012.346 1.549.436l.14 1.119a.625.625 0 0 0 .62.548h.937a.625.625 0 0 0 .62-.548l.14-1.119c.537-.09 1.055-.238 1.548-.436l.694.917a.625.625 0 0 0 .811.164l.811-.469a.625.625 0 0 0 .264-.784l-.471-1.116c.388-.335.743-.709 1.057-1.116l1.158.489a.625.625 0 0 0 .785-.264l.468-.812a.625.625 0 0 0-.164-.81l-1.071-.811a7.4 7.4 0 0 0 .319-1.397l1.39-.174a.625.625 0 0 0 .548-.62v-.937a.625.625 0 0 0-.548-.62l-1.5-.187c-.094-.43-.226-.847-.391-1.247l1.253-.948a.625.625 0 0 0 .164-.811l-.468-.811a.625.625 0 0 0-.49-.311.625.625 0 0 0-.296.048l-1.542.651a7.62 7.62 0 0 0-.867-.816l.666-1.578a.625.625 0 0 0-.264-.784l-.811-.468a.625.625 0 0 0-.437-.072.625.625 0 0 0-.374.236l-1.063 1.404c-.356-.122-.724-.217-1.1-.284l-.219-1.759a.625.625 0 0 0-.62-.548h-.937zm-17.78 2.57a.625.625 0 0 0-.62.548l-.219 1.758a7.41 7.41 0 0 0-1.099.285l-1.064-1.404a.625.625 0 0 0-.524-.247.625.625 0 0 0-.286.082l-.812.469a.625.625 0 0 0-.264.784l.666 1.577a7.62 7.62 0 0 0-.866.817l-1.543-.651a.625.625 0 0 0-.442-.016.625.625 0 0 0-.342.279l-.469.812a.625.625 0 0 0 .164.81l1.253.948c-.165.4-.296.816-.39 1.247l-1.501.188a.625.625 0 0 0-.548.62v.938a.625.625 0 0 0 .548.619l1.391.175a7.4 7.4 0 0 0 .318 1.397l-1.071.811a.625.625 0 0 0-.164.81l.469.812a.625.625 0 0 0 .784.263l1.159-.489c.313.407.667.781 1.056 1.117l-.471 1.116a.625.625 0 0 0 .264.784l.812.469a.625.625 0 0 0 .81-.165l.694-.916c.493.199 1.011.346 1.548.436l.14 1.119a.625.625 0 0 0 .62.548h.937a.625.625 0 0 0 .62-.548l.14-1.119c.537-.09 1.055-.238 1.548-.436l.694.916a.625.625 0 0 0 .811.165l.811-.469a.625.625 0 0 0 .264-.784l-.47-1.116c.388-.335.742-.71 1.056-1.117l1.159.489a.625.625 0 0 0 .784-.263l.468-.812a.625.625 0 0 0-.164-.81l-1.071-.811a7.4 7.4 0 0 0 .319-1.397l1.391-.175a.625.625 0 0 0 .548-.619v-.938a.625.625 0 0 0-.548-.62l-1.501-.188a7.42 7.42 0 0 0-.391-1.247l1.253-.948a.625.625 0 0 0 .164-.81l-.468-.812a.625.625 0 0 0-.49-.31.625.625 0 0 0-.295.048l-1.543.651c-.266-.295-.556-.568-.866-.817l.665-1.577a.625.625 0 0 0-.264-.784l-.811-.468a.625.625 0 0 0-.436-.072.625.625 0 0 0-.375.236l-1.063 1.404c-.356-.122-.723-.218-1.099-.285l-.22-1.758a.625.625 0 0 0-.62-.548h-.937zm18.249 3.369a3.72 3.72 0 1 1 0 7.501 3.72 3.72 0 0 1 0-7.501zm-17.779 2.57a3.72 3.72 0 1 1 0 7.501 3.72 3.72 0 1 1 0-7.501z" fill="#77767b"/><path d="M98.465 122.668a.625.625 0 0 0-.62.548l-.22 1.758a7.41 7.41 0 0 0-1.099.285l-1.063-1.405a.625.625 0 0 0-.524-.247.625.625 0 0 0-.287.083l-.811.469a.625.625 0 0 0-.264.784l.665 1.577a7.62 7.62 0 0 0-.866.817l-1.543-.651a.625.625 0 0 0-.442-.016.625.625 0 0 0-.342.28l-.468.812a.625.625 0 0 0 .164.81l1.253.948a7.42 7.42 0 0 0-.391 1.247l-1.501.187a.625.625 0 0 0-.547.62v.938a.625.625 0 0 0 .547.62l1.391.174a7.41 7.41 0 0 0 .319 1.398l-1.071.81a.625.625 0 0 0-.164.811l.468.811a.625.625 0 0 0 .784.264l1.159-.489a7.62 7.62 0 0 0 1.057 1.117l-.471 1.116a.625.625 0 0 0 .264.784l.811.468a.625.625 0 0 0 .81-.164l.694-.916c.493.199 1.012.346 1.549.436l.14 1.119a.625.625 0 0 0 .62.547h.937a.625.625 0 0 0 .62-.547l.14-1.119c.537-.09 1.055-.238 1.548-.436l.694.916a.625.625 0 0 0 .811.164l.811-.468a.625.625 0 0 0 .264-.784l-.471-1.116a7.62 7.62 0 0 0 1.057-1.117l1.158.489a.625.625 0 0 0 .784-.264l.469-.811a.625.625 0 0 0-.164-.811l-1.071-.81a7.41 7.41 0 0 0 .319-1.398l1.39-.174a.625.625 0 0 0 .548-.62v-.937a.625.625 0 0 0-.548-.62l-1.5-.187c-.094-.43-.226-.847-.391-1.247l1.253-.948a.625.625 0 0 0 .164-.81l-.469-.812a.625.625 0 0 0-.49-.31.625.625 0 0 0-.295.047l-1.542.651c-.266-.295-.557-.568-.867-.817l.666-1.577a.625.625 0 0 0-.264-.784l-.811-.469a.625.625 0 0 0-.437-.071.625.625 0 0 0-.374.235l-1.064 1.405c-.356-.122-.723-.218-1.099-.285l-.219-1.758a.625.625 0 0 0-.62-.548h-.937zm-17.78 2.57a.625.625 0 0 0-.62.547l-.219 1.759a7.41 7.41 0 0 0-1.099.284l-1.064-1.404a.625.625 0 0 0-.524-.247.625.625 0 0 0-.286.083l-.812.468a.625.625 0 0 0-.264.784l.666 1.578c-.309.25-.6.523-.867.817l-1.542-.651a.625.625 0 0 0-.442-.016.625.625 0 0 0-.342.28l-.469.811a.625.625 0 0 0 .164.811l1.253.948a7.42 7.42 0 0 0-.391 1.247l-1.5.187a.625.625 0 0 0-.548.62v.937a.625.625 0 0 0 .548.62l1.39.174a7.41 7.41 0 0 0 .319 1.398l-1.071.81a.625.625 0 0 0-.164.811l.469.811a.625.625 0 0 0 .784.264l1.158-.489c.313.407.668.78 1.057 1.116l-.471 1.116a.625.625 0 0 0 .264.785l.812.468a.625.625 0 0 0 .81-.164l.694-.917c.493.199 1.011.346 1.548.436l.14 1.119a.625.625 0 0 0 .62.548h.937a.625.625 0 0 0 .62-.548l.14-1.119c.537-.09 1.055-.238 1.548-.436l.694.917a.625.625 0 0 0 .811.164l.811-.468a.625.625 0 0 0 .264-.785l-.471-1.116c.388-.335.743-.709 1.057-1.116l1.159.489a.625.625 0 0 0 .784-.264l.468-.811a.625.625 0 0 0-.164-.811l-1.071-.81a7.41 7.41 0 0 0 .319-1.398l1.391-.174a.625.625 0 0 0 .547-.62v-.937a.625.625 0 0 0-.547-.62l-1.501-.187a7.42 7.42 0 0 0-.391-1.247l1.253-.948a.625.625 0 0 0 .164-.811l-.468-.811a.625.625 0 0 0-.49-.31.625.625 0 0 0-.295.047l-1.543.651c-.266-.295-.556-.568-.866-.817l.665-1.578a.625.625 0 0 0-.264-.783l-.811-.469a.625.625 0 0 0-.436-.072.625.625 0 0 0-.375.236l-1.063 1.404c-.356-.122-.723-.217-1.099-.284l-.22-1.759a.625.625 0 0 0-.62-.547h-.937zm18.249 3.368a3.72 3.72 0 1 1 0 7.502 3.72 3.72 0 1 1 0-7.502zm-17.779 2.57a3.72 3.72 0 1 1 0 7.501 3.72 3.72 0 1 1 0-7.501z" fill="#f6f5f4"/><path d="M70.241 134.506h46.673c2.343 0 4.243 1.601 4.243 3.577v34.873c0 1.975-1.9 3.577-4.243 3.577H70.241c-2.343 0-4.243-1.601-4.243-3.577v-34.873c0-1.975 1.9-3.577 4.243-3.577zm0 0" fill="url(#A)"/><path d="M70.241 130.035h46.673c2.343 0 4.243 1.601 4.243 3.577v35.767c0 1.975-1.9 3.577-4.243 3.577H70.241c-2.343 0-4.243-1.601-4.243-3.577v-35.767c0-1.975 1.9-3.577 4.243-3.577zm0 0" fill="url(#B)"/><path d="M70.241 130.929h46.673c1.757 0 3.182 1.202 3.182 2.683v35.767c0 1.481-1.425 2.683-3.182 2.683H70.241c-1.757 0-3.182-1.202-3.182-2.683v-35.767c0-1.481 1.425-2.683 3.182-2.683zm0 0" fill="#5e5c64"/><path d="M93.577 140.395a7.319 7.319 0 1 0 0 14.637 7.319 7.319 0 1 0 0-14.637zM81.44 157.917c-.635 0-1.145.511-1.145 1.146v3.38a1.14 1.14 0 0 0 1.145 1.145h24.273c.635 0 1.146-.51 1.146-1.145v-3.38c0-.635-.511-1.146-1.146-1.146H81.44z" fill="#241f31" paint-order="stroke fill markers"/><path d="M100.895 146.721a7.319 7.319 0 1 1-14.637 0 7.319 7.319 0 1 1 14.637 0z" fill="#c0bfbc" paint-order="stroke fill markers"/><path d="M93.577 141.035a2.14 2.14 0 0 0-2.138 2.138 2.14 2.14 0 0 0 2.138 2.138 2.14 2.14 0 0 0 2.138-2.138 2.14 2.14 0 0 0-2.138-2.138zm-1.069 4.99a3.2 3.2 0 0 0-3.208 3.208v.356a1.42 1.42 0 0 0 1.426 1.426h5.702a1.42 1.42 0 0 0 1.426-1.426v-.356a3.2 3.2 0 0 0-3.208-3.208zm0 0" fill="#241f31"/><path d="M109.654 140.241c-1.7 1.473-2.78 3.643-2.795 6.068a8.09 8.09 0 0 0 4.005 7.035l-.002.071-.116 19.22c-.014 2.243 1.779 4.058 4.022 4.071s4.058-1.779 4.071-4.022l.116-19.22v-.071a8.09 8.09 0 0 0 4.09-6.986c.02-3.396-2.054-6.315-5.012-7.534l-.039 6.492-3.044 1.499-3.026-1.536.039-6.492c-.589.234-1.144.535-1.655.894-.227.159-.444.33-.653.511zm4.129 30.784a1.51 1.51 0 0 1 1.023-.388 1.52 1.52 0 0 1 1.508 1.526 1.52 1.52 0 0 1-1.526 1.508 1.52 1.52 0 0 1-1.509-1.527c.003-.445.197-.844.504-1.12z" fill="#1a5fb4"/><path d="M109.66 139.229c-1.699 1.473-2.78 3.643-2.795 6.069a8.09 8.09 0 0 0 4.005 7.035l-.001.071-.116 19.221c-.014 2.242 1.779 4.057 4.021 4.071s4.058-1.779 4.071-4.022l.116-19.22v-.071a8.09 8.09 0 0 0 4.09-6.986c.02-3.396-2.054-6.316-5.012-7.534l-.046 7.504-3.044 1.499-3.026-1.536.046-7.504a8.08 8.08 0 0 0-1.655.894c-.227.159-.444.33-.653.511zm4.128 30.784c.271-.243.63-.391 1.023-.388a1.52 1.52 0 0 1 1.508 1.527 1.52 1.52 0 0 1-1.526 1.508 1.52 1.52 0 0 1-1.508-1.527c.003-.445.196-.844.504-1.12z" fill="#62a0ea"/></g></svg>
